<?xml version="1.0" encoding="UTF-8"?>
<svg id="Layer_1" xmlns="http://www.w3.org/2000/svg" version="1.1" viewBox="0 0 125.46 125.21">
  <!-- Generator: Adobe Illustrator 29.5.0, SVG Export Plug-In . SVG Version: 2.1.0 Build 137)  -->
  <defs>
    <style>
      .st0 {
        fill: #fff;
      }

      .st1 {
        fill: #ffb600;
      }
    </style>
  </defs>
  <path class="st0" d="M148.44,99.24h-2.27v-12.7h2.27v-2.16h-6.82v2.16h2.28v12.7h-2.28v2.16h6.82v-2.16Z"/>
  <path class="st1" d="M121.6,53.11c-.41-15.33-11.39-28.01-25.93-31.09l-1.81-2.08h-1.15v-1.2c.57-.22.98-.76.98-1.41s-.41-1.19-.98-1.4v-1.2c.91-.24,1.58-1.05,1.58-2.03s-.67-1.79-1.58-2.02v-1.2c.57-.22.98-.76.98-1.41s-.41-1.19-.98-1.4v-1.18c1.21-.24,2.13-1.31,2.13-2.59,0-1.46-1.19-2.65-2.65-2.65s-2.65,1.19-2.65,2.65c0,1.28.91,2.34,2.12,2.59v1.18c-.57.22-.98.76-.98,1.4s.41,1.19.98,1.4v1.21c-.9.24-1.57,1.05-1.57,2.02s.67,1.79,1.57,2.02v1.21c-.57.22-.98.76-.98,1.4s.41,1.19.98,1.4v1.21h-1.14l-1.81,2.08c-14.55,3.08-25.52,15.76-25.93,31.09h-3.35c.24-10.18,4.77-19.32,11.84-25.7-3.14-2.25-6.71-3.94-10.55-4.97.18-.16.3-.39.3-.65,0-.49-.4-.88-.9-.88h-.8c-.6-1.24-1.78-2.13-3.19-2.33v-1.39l.74-.53-.69-9.24,3.94.64.54-.74v-.1h1.67v-.98h-1.67v-.11l-.54-.74-3.88.63.63-3.87-.74-.53V0h-1.19v1.62l-.75.53.64,3.87-3.88-.63-.54.74v.11h-1.67v.98h1.67v.1l.54.74,3.94-.64-.7,9.24.75.53v1.39c-1.41.2-2.59,1.09-3.19,2.33h-.8c-.5,0-.9.39-.9.88,0,.26.11.48.29.65-13.68,3.67-23.82,15.95-24.21,30.67h-3.87v3.85s3.87,3.58,3.87,3.63v11.35h-9.64L0,87.38v37.83h95.53l16.44-15.41v-28.85l9.62-9.01v-11.35s3.87-3.63,3.87-3.63v-3.85h-3.86ZM90.68,2.33c0-.83.68-1.51,1.51-1.51s1.5.68,1.5,1.51-.67,1.5-1.5,1.5-1.51-.67-1.51-1.5Z"/>
</svg>