<?xml version="1.0" encoding="UTF-8"?>
<svg id="Layer_2" xmlns="http://www.w3.org/2000/svg" version="1.1" xmlns:xlink="http://www.w3.org/1999/xlink" viewBox="0 0 39.73 23.18">
  <!-- Generator: Adobe Illustrator 29.5.0, SVG Export Plug-In . SVG Version: 2.1.0 Build 137)  -->
  <defs>
    <style>
      .st0 {
        fill: #fff;
      }

      .st1 {
        fill: none;
      }

      .st2 {
        fill: #ca2027;
      }

      .st3 {
        clip-path: url(#clippath);
      }

      .st4 {
        fill: #2b3561;
      }
    </style>
    <clipPath id="clippath">
      <rect class="st1" width="39.73" height="23.18"/>
    </clipPath>
  </defs>
  <g id="Layer_1-2">
    <g id="USA">
      <g class="st3">
        <g>
          <rect class="st2" y="21.4" width="39.73" height="1.78"/>
          <rect class="st0" y="19.62" width="39.73" height="1.78"/>
          <rect class="st2" y="17.84" width="39.73" height="1.78"/>
          <rect class="st0" y="16.05" width="39.73" height="1.78"/>
          <rect class="st2" y="14.27" width="39.73" height="1.78"/>
          <rect class="st0" y="12.49" width="39.73" height="1.78"/>
          <rect class="st2" y="10.7" width="39.73" height="1.79"/>
          <rect class="st0" y="8.92" width="39.73" height="1.78"/>
          <rect class="st2" y="7.14" width="39.73" height="1.78"/>
          <rect class="st0" y="5.36" width="39.73" height="1.78"/>
          <rect class="st2" y="3.57" width="39.73" height="1.78"/>
          <rect class="st0" y="1.79" width="39.73" height="1.78"/>
          <rect class="st2" y="0" width="39.73" height="1.78"/>
          <rect class="st4" y="0" width="18.14" height="12.48"/>
          <polygon class="st0" points="1.64 1.38 1.79 1.85 2.29 1.85 1.89 2.15 2.04 2.62 1.64 2.32 1.23 2.62 1.39 2.15 .99 1.85 1.48 1.85 1.64 1.38"/>
          <polygon class="st0" points="1.64 3.47 1.79 3.94 2.29 3.94 1.89 4.23 2.04 4.7 1.64 4.41 1.23 4.7 1.39 4.23 .99 3.94 1.48 3.94 1.64 3.47"/>
          <polygon class="st0" points="1.64 5.55 1.79 6.02 2.29 6.02 1.89 6.31 2.04 6.78 1.64 6.49 1.23 6.78 1.39 6.31 .99 6.02 1.48 6.02 1.64 5.55"/>
          <polygon class="st0" points="1.64 7.63 1.79 8.1 2.29 8.1 1.89 8.39 2.04 8.86 1.64 8.58 1.23 8.86 1.39 8.39 .99 8.1 1.48 8.1 1.64 7.63"/>
          <polygon class="st0" points="1.64 9.71 1.79 10.19 2.29 10.19 1.89 10.48 2.04 10.95 1.64 10.66 1.23 10.95 1.39 10.48 .99 10.19 1.48 10.19 1.64 9.71"/>
          <polygon class="st0" points="3.09 2.48 3.24 2.95 3.74 2.95 3.34 3.24 3.49 3.71 3.09 3.42 2.69 3.71 2.84 3.24 2.44 2.95 2.94 2.95 3.09 2.48"/>
          <polygon class="st0" points="3.09 4.56 3.24 5.03 3.74 5.03 3.34 5.33 3.49 5.8 3.09 5.51 2.69 5.8 2.84 5.33 2.44 5.03 2.94 5.03 3.09 4.56"/>
          <polygon class="st0" points="3.09 6.65 3.24 7.12 3.74 7.12 3.34 7.41 3.49 7.88 3.09 7.59 2.69 7.88 2.84 7.41 2.44 7.12 2.94 7.12 3.09 6.65"/>
          <polygon class="st0" points="3.09 8.73 3.24 9.2 3.74 9.2 3.34 9.49 3.49 9.96 3.09 9.67 2.69 9.96 2.84 9.49 2.44 9.2 2.94 9.2 3.09 8.73"/>
          <polygon class="st0" points="4.55 1.38 4.71 1.85 5.21 1.85 4.8 2.15 4.96 2.62 4.55 2.32 4.16 2.62 4.31 2.15 3.91 1.85 4.4 1.85 4.55 1.38"/>
          <polygon class="st0" points="4.55 3.47 4.71 3.94 5.21 3.94 4.8 4.23 4.96 4.7 4.55 4.41 4.16 4.7 4.31 4.23 3.91 3.94 4.4 3.94 4.55 3.47"/>
          <polygon class="st0" points="4.55 5.55 4.71 6.02 5.21 6.02 4.8 6.31 4.96 6.78 4.55 6.49 4.16 6.78 4.31 6.31 3.91 6.02 4.4 6.02 4.55 5.55"/>
          <polygon class="st0" points="4.55 7.63 4.71 8.1 5.21 8.1 4.8 8.39 4.96 8.86 4.55 8.58 4.16 8.86 4.31 8.39 3.91 8.1 4.4 8.1 4.55 7.63"/>
          <polygon class="st0" points="4.55 9.71 4.71 10.19 5.21 10.19 4.8 10.48 4.96 10.95 4.55 10.66 4.16 10.95 4.31 10.48 3.91 10.19 4.4 10.19 4.55 9.71"/>
          <polygon class="st0" points="6.01 2.48 6.16 2.95 6.66 2.95 6.26 3.24 6.41 3.71 6.01 3.42 5.61 3.71 5.76 3.24 5.36 2.95 5.85 2.95 6.01 2.48"/>
          <polygon class="st0" points="6.01 4.56 6.16 5.03 6.66 5.03 6.26 5.33 6.41 5.8 6.01 5.51 5.61 5.8 5.76 5.33 5.36 5.03 5.85 5.03 6.01 4.56"/>
          <polygon class="st0" points="6.01 6.65 6.16 7.12 6.66 7.12 6.26 7.41 6.41 7.88 6.01 7.59 5.61 7.88 5.76 7.41 5.36 7.12 5.85 7.12 6.01 6.65"/>
          <polygon class="st0" points="6.01 8.73 6.16 9.2 6.66 9.2 6.26 9.49 6.41 9.96 6.01 9.67 5.61 9.96 5.76 9.49 5.36 9.2 5.85 9.2 6.01 8.73"/>
          <polygon class="st0" points="7.47 1.38 7.63 1.85 8.12 1.85 7.72 2.15 7.88 2.62 7.47 2.32 7.08 2.62 7.23 2.15 6.83 1.85 7.32 1.85 7.47 1.38"/>
          <polygon class="st0" points="7.47 3.47 7.63 3.94 8.12 3.94 7.72 4.23 7.88 4.7 7.47 4.41 7.08 4.7 7.23 4.23 6.83 3.94 7.32 3.94 7.47 3.47"/>
          <polygon class="st0" points="7.47 5.55 7.63 6.02 8.12 6.02 7.72 6.31 7.88 6.78 7.47 6.49 7.08 6.78 7.23 6.31 6.83 6.02 7.32 6.02 7.47 5.55"/>
          <polygon class="st0" points="7.47 7.63 7.63 8.1 8.12 8.1 7.72 8.39 7.88 8.86 7.47 8.58 7.08 8.86 7.23 8.39 6.83 8.1 7.32 8.1 7.47 7.63"/>
          <polygon class="st0" points="7.47 9.71 7.63 10.19 8.12 10.19 7.72 10.48 7.88 10.95 7.47 10.66 7.08 10.95 7.23 10.48 6.83 10.19 7.32 10.19 7.47 9.71"/>
          <polygon class="st0" points="8.93 2.48 9.08 2.95 9.58 2.95 9.18 3.24 9.33 3.71 8.93 3.42 8.53 3.71 8.68 3.24 8.28 2.95 8.77 2.95 8.93 2.48"/>
          <polygon class="st0" points="8.93 4.56 9.08 5.03 9.58 5.03 9.18 5.33 9.33 5.8 8.93 5.51 8.53 5.8 8.68 5.33 8.28 5.03 8.77 5.03 8.93 4.56"/>
          <polygon class="st0" points="8.93 6.65 9.08 7.12 9.58 7.12 9.18 7.41 9.33 7.88 8.93 7.59 8.53 7.88 8.68 7.41 8.28 7.12 8.77 7.12 8.93 6.65"/>
          <polygon class="st0" points="8.93 8.73 9.08 9.2 9.58 9.2 9.18 9.49 9.33 9.96 8.93 9.67 8.53 9.96 8.68 9.49 8.28 9.2 8.77 9.2 8.93 8.73"/>
          <polygon class="st0" points="10.39 1.38 10.55 1.85 11.04 1.85 10.64 2.15 10.8 2.62 10.39 2.32 10 2.62 10.15 2.15 9.75 1.85 10.24 1.85 10.39 1.38"/>
          <polygon class="st0" points="10.39 3.47 10.55 3.94 11.04 3.94 10.64 4.23 10.8 4.7 10.39 4.41 10 4.7 10.15 4.23 9.75 3.94 10.24 3.94 10.39 3.47"/>
          <polygon class="st0" points="10.39 5.55 10.55 6.02 11.04 6.02 10.64 6.31 10.8 6.78 10.39 6.49 10 6.78 10.15 6.31 9.75 6.02 10.24 6.02 10.39 5.55"/>
          <polygon class="st0" points="10.39 7.63 10.55 8.1 11.04 8.1 10.64 8.39 10.8 8.86 10.39 8.58 10 8.86 10.15 8.39 9.75 8.1 10.24 8.1 10.39 7.63"/>
          <polygon class="st0" points="10.39 9.71 10.55 10.19 11.04 10.19 10.64 10.48 10.8 10.95 10.39 10.66 10 10.95 10.15 10.48 9.75 10.19 10.24 10.19 10.39 9.71"/>
          <polygon class="st0" points="11.85 2.48 12 2.95 12.5 2.95 12.1 3.24 12.25 3.71 11.85 3.42 11.45 3.71 11.6 3.24 11.2 2.95 11.7 2.95 11.85 2.48"/>
          <polygon class="st0" points="11.85 4.56 12 5.03 12.5 5.03 12.1 5.33 12.25 5.8 11.85 5.51 11.45 5.8 11.6 5.33 11.2 5.03 11.7 5.03 11.85 4.56"/>
          <polygon class="st0" points="11.85 6.65 12 7.12 12.5 7.12 12.1 7.41 12.25 7.88 11.85 7.59 11.45 7.88 11.6 7.41 11.2 7.12 11.7 7.12 11.85 6.65"/>
          <polygon class="st0" points="11.85 8.73 12 9.2 12.5 9.2 12.1 9.49 12.25 9.96 11.85 9.67 11.45 9.96 11.6 9.49 11.2 9.2 11.7 9.2 11.85 8.73"/>
          <polygon class="st0" points="13.32 1.38 13.47 1.85 13.97 1.85 13.56 2.15 13.72 2.62 13.32 2.32 12.92 2.62 13.07 2.15 12.67 1.85 13.17 1.85 13.32 1.38"/>
          <polygon class="st0" points="13.32 3.47 13.47 3.94 13.97 3.94 13.56 4.23 13.72 4.7 13.32 4.41 12.92 4.7 13.07 4.23 12.67 3.94 13.17 3.94 13.32 3.47"/>
          <polygon class="st0" points="13.32 5.55 13.47 6.02 13.97 6.02 13.56 6.31 13.72 6.78 13.32 6.49 12.92 6.78 13.07 6.31 12.67 6.02 13.17 6.02 13.32 5.55"/>
          <polygon class="st0" points="13.32 7.63 13.47 8.1 13.97 8.1 13.56 8.39 13.72 8.86 13.32 8.58 12.92 8.86 13.07 8.39 12.67 8.1 13.17 8.1 13.32 7.63"/>
          <polygon class="st0" points="13.32 9.71 13.47 10.19 13.97 10.19 13.56 10.48 13.72 10.95 13.32 10.66 12.92 10.95 13.07 10.48 12.67 10.19 13.17 10.19 13.32 9.71"/>
          <polygon class="st0" points="14.77 2.48 14.92 2.95 15.42 2.95 15.02 3.24 15.17 3.71 14.77 3.42 14.37 3.71 14.52 3.24 14.12 2.95 14.61 2.95 14.77 2.48"/>
          <polygon class="st0" points="14.77 4.56 14.92 5.03 15.42 5.03 15.02 5.33 15.17 5.8 14.77 5.51 14.37 5.8 14.52 5.33 14.12 5.03 14.61 5.03 14.77 4.56"/>
          <polygon class="st0" points="14.77 6.65 14.92 7.12 15.42 7.12 15.02 7.41 15.17 7.88 14.77 7.59 14.37 7.88 14.52 7.41 14.12 7.12 14.61 7.12 14.77 6.65"/>
          <polygon class="st0" points="14.77 8.73 14.92 9.2 15.42 9.2 15.02 9.49 15.17 9.96 14.77 9.67 14.37 9.96 14.52 9.49 14.12 9.2 14.61 9.2 14.77 8.73"/>
          <polygon class="st0" points="16.23 1.38 16.39 1.85 16.88 1.85 16.48 2.15 16.64 2.62 16.23 2.32 15.84 2.62 15.99 2.15 15.59 1.85 16.08 1.85 16.23 1.38"/>
          <polygon class="st0" points="16.23 3.47 16.39 3.94 16.88 3.94 16.48 4.23 16.64 4.7 16.23 4.41 15.84 4.7 15.99 4.23 15.59 3.94 16.08 3.94 16.23 3.47"/>
          <polygon class="st0" points="16.23 5.55 16.39 6.02 16.88 6.02 16.48 6.31 16.64 6.78 16.23 6.49 15.84 6.78 15.99 6.31 15.59 6.02 16.08 6.02 16.23 5.55"/>
          <polygon class="st0" points="16.23 7.63 16.39 8.1 16.88 8.1 16.48 8.39 16.64 8.86 16.23 8.58 15.84 8.86 15.99 8.39 15.59 8.1 16.08 8.1 16.23 7.63"/>
          <polygon class="st0" points="16.23 9.71 16.39 10.19 16.88 10.19 16.48 10.48 16.64 10.95 16.23 10.66 15.84 10.95 15.99 10.48 15.59 10.19 16.08 10.19 16.23 9.71"/>
        </g>
      </g>
    </g>
  </g>
</svg>