<?xml version="1.0" encoding="UTF-8"?>
<svg id="Layer_1" xmlns="http://www.w3.org/2000/svg" version="1.1" viewBox="0 0 315 124">
  <!-- Generator: Adobe Illustrator 29.5.0, SVG Export Plug-In . SVG Version: 2.1.0 Build 137)  -->
  <defs>
    <style>
      .st0 {
        fill: #ffb600;
      }

      .st1 {
        fill: #fff;
      }
    </style>
  </defs>
  <path class="st1" d="M137.5,98h-2.2v-12.5h2.2v-2.1h-6.7v2.1h2.2v12.5h-2.2v2.1h6.7v-2.1Z"/>
  <path class="st1" d="M144.5,85.8l4.7,14.3h4v-16.8h-2.2v14.3h-.6l-4.6-14.3h-4v16.8h2.1v-14.3h.6Z"/>
  <path class="st1" d="M163.3,100.1v-14.7h4.4v-2.1h-11v2.1h4.4v14.7h2.2Z"/>
  <path class="st1" d="M180.7,85.4v-2.1h-9.5v16.8h9.5v-2.1h-7.3v-5.6h6.6v-2.1h-6.6v-4.9h7.3Z"/>
  <path class="st1" d="M184.8,100.1h2.2v-7.8h4.1l2.3,7.8h2.4l-2.5-8c.3,0,.6-.2.8-.3.7-.4,1.3-.9,1.7-1.6.4-.7.6-1.5.6-2.3s-.2-1.6-.6-2.3c-.4-.7-1-1.2-1.7-1.6-.7-.4-1.5-.6-2.4-.6h-7v16.8h0ZM193.5,86.1c.5.4.7,1,.7,1.8s-.2,1.3-.7,1.8c-.5.4-1.1.6-1.7.6h-4.7v-4.8h4.7c.7,0,1.2.2,1.7.6h0Z"/>
  <path class="st1" d="M211.9,83.3h-2.2v14.3h-.6l-4.6-14.3h-4v16.8h2.1v-14.3h.6l4.7,14.3h4v-16.8Z"/>
  <path class="st1" d="M223.9,83.3h-4l-4.6,16.8h2.3l1.6-5.8h5.5l1.6,5.8h2.3l-4.6-16.8ZM219.7,92.2l1.8-6.8h.7l1.8,6.8h-4.4,0Z"/>
  <path class="st1" d="M228.9,85.4h4.4v14.7h2.2v-14.7h4.4v-2.1h-11v2.1Z"/>
  <path class="st1" d="M249.5,85.4v-2.1h-6.7v2.1h2.2v12.5h-2.2v2.1h6.7v-2.1h-2.2v-12.5h2.2Z"/>
  <path class="st1" d="M267.4,85.6c-.8-.8-1.7-1.4-2.8-1.9-1.1-.4-2.2-.7-3.4-.7s-2.3.2-3.4.7c-1.1.4-2,1.1-2.8,1.9-.8.8-1.4,1.7-1.9,2.7-.4,1-.7,2.2-.7,3.3s.2,2.3.7,3.3c.4,1,1.1,2,1.9,2.8.8.8,1.7,1.4,2.8,1.9,1.1.4,2.2.7,3.4.7s2.3-.2,3.4-.7c1.1-.4,2-1.1,2.8-1.9.8-.8,1.4-1.7,1.9-2.8.4-1,.7-2.2.7-3.3s-.2-2.3-.7-3.3c-.4-1-1.1-2-1.9-2.7ZM267.1,94.3c-.3.8-.8,1.5-1.4,2-.6.6-1.3,1-2,1.3-.8.3-1.6.5-2.5.5s-1.7-.1-2.5-.5c-.8-.3-1.5-.7-2-1.3-.6-.6-1-1.2-1.4-2-.3-.8-.5-1.7-.5-2.6s.2-1.8.5-2.6c.3-.8.8-1.5,1.4-2,.6-.6,1.3-1,2-1.3.8-.3,1.6-.5,2.5-.5s1.7.1,2.5.5c.8.3,1.4.7,2,1.3.6.6,1,1.3,1.4,2,.3.8.5,1.7.5,2.6s-.2,1.9-.5,2.6Z"/>
  <path class="st1" d="M283.2,97.6h-.6l-4.7-14.3h-4v16.8h2.2v-14.3h.6l4.7,14.3h4v-16.8h-2.1v14.3Z"/>
  <path class="st1" d="M293.4,83.3l-4.6,16.8h2.3l1.6-5.8h5.5l1.6,5.8h2.3l-4.6-16.8h-4ZM293.2,92.2l1.8-6.8h.7l1.8,6.8h-4.4,0Z"/>
  <path class="st1" d="M307.6,98v-14.7h-2.2v16.8h9.6v-2.1h-7.4Z"/>
  <path class="st1" d="M139.5,115v-.5c.7-.2,1.3-.6,1.7-1.2.4-.6.6-1.3.6-2.2s-.2-1.6-.6-2.2c-.4-.6-1-1.1-1.7-1.4-.7-.3-1.5-.5-2.4-.5h-5.7v16.8h5.7c1.1,0,2-.2,2.8-.6s1.4-.9,1.9-1.7c.4-.7.6-1.6.6-2.5s-.3-1.9-.8-2.6c-.5-.7-1.2-1.2-2.1-1.4h0ZM138.9,109.7c.4.4.6,1,.6,1.7s-.2,1.3-.6,1.7c-.4.4-1,.6-1.7.6h-3.5v-4.7h3.5c.8,0,1.4.2,1.8.6h0ZM139.2,120.9c-.6.5-1.4.7-2.4.7h-3.2v-5.8h3.2c.7,0,1.2.1,1.7.4.5.2.8.6,1.1,1,.3.4.4,1,.4,1.6,0,.9-.3,1.6-.8,2.1h0Z"/>
  <path class="st1" d="M154.7,107.6c-.7-.4-1.5-.6-2.4-.6h-7v16.8h2.2v-7.8h4.1l2.3,7.8h2.4l-2.5-8c.3,0,.6-.2.8-.3.7-.4,1.3-.9,1.7-1.6.4-.7.6-1.5.6-2.3s-.2-1.6-.6-2.3c-.4-.7-1-1.2-1.7-1.6h0ZM154,113.2c-.5.4-1.1.6-1.7.6h-4.7v-4.8h4.7c.7,0,1.2.2,1.7.6.5.4.7,1,.7,1.8s-.2,1.3-.7,1.8h0Z"/>
  <path class="st1" d="M173.9,109.3c-.8-.8-1.7-1.4-2.8-1.9-1.1-.4-2.2-.7-3.4-.7s-2.3.2-3.4.7c-1.1.4-2,1.1-2.8,1.9-.8.8-1.4,1.7-1.9,2.7-.4,1-.7,2.2-.7,3.3s.2,2.3.7,3.3c.4,1,1.1,2,1.9,2.8.8.8,1.7,1.4,2.8,1.9s2.2.7,3.4.7,2.3-.2,3.4-.7,2-1.1,2.8-1.9c.8-.8,1.4-1.7,1.9-2.8.4-1,.7-2.2.7-3.3s-.2-2.3-.7-3.3c-.4-1-1.1-2-1.9-2.7ZM173.6,118c-.3.8-.8,1.5-1.4,2-.6.6-1.3,1-2,1.3-.8.3-1.6.5-2.5.5s-1.7-.1-2.5-.5c-.8-.3-1.5-.7-2-1.3-.6-.6-1-1.2-1.4-2-.3-.8-.5-1.7-.5-2.6s.2-1.8.5-2.6c.3-.8.8-1.5,1.4-2,.6-.6,1.3-1,2-1.3.8-.3,1.6-.5,2.5-.5s1.7.1,2.5.5c.8.3,1.4.7,2,1.3.6.6,1,1.3,1.4,2,.3.8.5,1.7.5,2.6s-.2,1.9-.5,2.6Z"/>
  <path class="st1" d="M182.2,107l-4.6,16.8h2.3l1.6-5.8h5.5l1.6,5.8h2.3l-4.6-16.8h-4ZM182,115.9l1.8-6.8h.7l1.8,6.8h-4.4,0Z"/>
  <path class="st1" d="M205,109.4c-.8-.8-1.7-1.4-2.8-1.8-1.1-.4-2.2-.6-3.4-.6h-5.8v16.8h5.8c1.2,0,2.3-.2,3.4-.6,1.1-.4,2-1,2.8-1.8.8-.8,1.4-1.7,1.9-2.7.4-1,.7-2.1.7-3.3s-.2-2.3-.7-3.3c-.4-1-1.1-1.9-1.9-2.7ZM204.4,118.8c-.6.9-1.3,1.7-2.3,2.2-1,.5-2,.8-3.2.8h-3.5v-12.6h3.5c1.2,0,2.2.3,3.2.8,1,.5,1.7,1.2,2.3,2.2.6.9.9,2.1.9,3.4s-.3,2.4-.9,3.4Z"/>
  <path class="st1" d="M221,121.1c-.9.5-1.9.7-3,.7s-1.7-.2-2.4-.5c-.7-.3-1.4-.8-1.9-1.4-.6-.6-1-1.3-1.3-2.1s-.4-1.6-.4-2.6.1-1.8.4-2.6c.3-.8.7-1.5,1.3-2.1s1.2-1,1.9-1.4c.7-.3,1.5-.5,2.4-.5s2.1.2,3,.7c.9.5,1.6,1.2,2,2.2h2.5c-.3-.8-.6-1.5-1.1-2.2-.5-.6-1.1-1.2-1.7-1.6-.7-.4-1.4-.8-2.2-1-.8-.2-1.7-.3-2.5-.3s-2.3.2-3.4.6c-1,.4-1.9,1-2.7,1.8-.8.8-1.3,1.7-1.8,2.7-.4,1-.6,2.2-.6,3.4s.2,2.4.6,3.4c.4,1.1,1,2,1.8,2.8.8.8,1.6,1.4,2.7,1.8,1,.4,2.1.6,3.3.6s1.8-.1,2.6-.3c.8-.2,1.5-.6,2.2-1,.7-.4,1.3-1,1.8-1.6.5-.6.9-1.3,1.1-2.1h-2.5c-.5,1-1.2,1.7-2.1,2.2h0Z"/>
  <path class="st1" d="M231.2,107l-4.6,16.8h2.3l1.6-5.8h5.5l1.6,5.8h2.3l-4.6-16.8h-4ZM231,115.9l1.8-6.8h.7l1.8,6.8h-4.4,0Z"/>
  <path class="st1" d="M250.7,115.1c-.7-.4-1.5-.7-2.3-.9l-1.6-.4c-.9-.2-1.6-.5-2.1-.9-.6-.4-.8-.9-.8-1.6s.3-1.4.8-1.8c.5-.4,1.3-.7,2.3-.7s1.7.3,2.3.9c.6.6.9,1.3,1,2.3h2.4c0-1.1-.3-2-.8-2.8-.5-.8-1.1-1.4-1.9-1.8-.8-.4-1.8-.6-2.9-.6s-2.2.2-3,.6c-.8.4-1.4,1-1.9,1.7-.4.7-.6,1.5-.6,2.3s.2,1.7.5,2.3c.4.6.9,1.1,1.6,1.4.7.4,1.5.7,2.5.9l1.5.4c1,.3,1.8.6,2.3,1,.5.4.8,1,.8,1.8s-.3,1.6-.9,2.1c-.6.5-1.4.7-2.5.7s-1.3-.1-1.8-.3c-.6-.2-1-.6-1.4-1.1-.4-.5-.6-1.2-.7-2h-2.4c.1,1.3.5,2.4,1.1,3.2.6.8,1.3,1.4,2.3,1.8.9.4,1.9.6,3,.6s2.2-.2,3-.6c.8-.4,1.5-1,2-1.8.5-.7.7-1.6.7-2.6s-.2-1.8-.6-2.5c-.4-.6-1-1.1-1.7-1.5Z"/>
  <path class="st1" d="M254.7,109.1h4.4v14.7h2.2v-14.7h4.4v-2.1h-11v2.1Z"/>
  <path class="st1" d="M137.4,67.2h5.8c1.7,0,3.1-.3,4.3-1,1.2-.7,2.2-1.6,2.9-2.7.7-1.2,1.1-2.4,1.1-3.9s-.3-2.7-1.1-3.8c-.7-1.1-1.7-2-2.9-2.7-1.2-.7-2.7-1-4.3-1h-11.9v25.1h6.1v-10.1h0ZM144.6,58.2c.4.4.7.9.7,1.5s-.2,1.2-.6,1.5c-.4.4-1,.6-1.6.6h-5.6v-4.2h5.6c.6,0,1.2.2,1.6.6h0Z"/>
  <path class="st1" d="M157.1,77.3l1.3-7.1h5.9l1.4,7.1h6.2l-5.8-25.1h-9.8l-5.8,25.1h6.4ZM159.2,65.2l1.4-7.6h1.1l1.5,7.6h-4Z"/>
  <path class="st1" d="M191,71.9h-10.4v-19.7h-6.1v25.1h16.5v-5.4Z"/>
  <path class="st1" d="M210.5,71.9h-10.4v-4.9h9.4v-5.2h-9.4v-4.2h10.4v-5.4h-16.5v25.1h16.5v-5.4Z"/>
  <path class="st1" d="M225.5,72.1c-.6.4-1.4.6-2.4.6s-1.5-.1-2.1-.4c-.7-.3-1.2-.7-1.6-1.3-.4-.6-.7-1.4-.8-2.4h-6.1c.3,2,.9,3.7,1.9,5.1,1,1.3,2.3,2.3,3.8,3,1.5.6,3.2,1,5.1,1s3.6-.3,5.1-1c1.5-.7,2.6-1.6,3.4-2.8.8-1.2,1.2-2.6,1.2-4.3s-.3-2.6-.8-3.6c-.5-1-1.4-1.8-2.5-2.5-1.1-.6-2.5-1.1-4.3-1.4l-2.2-.4c-1.1-.2-2-.5-2.5-.9-.6-.3-.8-.9-.8-1.7s.2-1.2.7-1.6c.5-.4,1.2-.6,2.1-.6s1.9.3,2.6,1c.6.7,1,1.5,1.2,2.5h6.1c-.1-1.7-.6-3.2-1.4-4.4-.8-1.3-1.9-2.2-3.3-3-1.4-.7-3-1.1-4.9-1.1s-3.7.3-5.2,1c-1.4.7-2.5,1.6-3.3,2.7-.8,1.2-1.1,2.5-1.1,3.9s.3,2.9.9,3.9c.6,1,1.5,1.8,2.7,2.4,1.2.6,2.5,1,4.1,1.3l2.2.4c1.3.2,2.1.5,2.6,1,.5.4.7,1,.7,1.7s-.3,1.4-.9,1.9h0Z"/>
  <path class="st1" d="M241.2,77.3h6.1v-19.7h6.4v-5.4h-18.8v5.4h6.4v19.7Z"/>
  <path class="st1" d="M268.7,71.9h-3.4v-14.3h3.4v-5.4h-12.8v5.4h3.4v14.3h-3.4v5.4h12.8v-5.4Z"/>
  <path class="st1" d="M278.1,60.8h.8l5.9,16.5h7.8v-25.1h-5.5v16.5h-.8l-5.7-16.5h-8v25.1h5.5v-16.5Z"/>
  <path class="st1" d="M313.7,71.9h-10.4v-4.9h9.4v-5.2h-9.4v-4.2h10.4v-5.4h-16.5v25.1h16.5v-5.4Z"/>
  <path class="st0" d="M120,52.4c-.4-15.1-11.2-27.6-25.6-30.7l-1.8-2.1h-1.1v-1.2c.6-.2,1-.8,1-1.4s-.4-1.2-1-1.4v-1.2c.9-.2,1.6-1,1.6-2s-.7-1.8-1.6-2v-1.2c.6-.2,1-.8,1-1.4s-.4-1.2-1-1.4v-1.2c1.2-.2,2.1-1.3,2.1-2.5s-1.2-2.6-2.6-2.6-2.6,1.2-2.6,2.6.9,2.3,2.1,2.5v1.2c-.6.2-1,.8-1,1.4s.4,1.2,1,1.4v1.2c-.9.2-1.5,1-1.5,2s.7,1.8,1.5,2v1.2c-.6.2-1,.8-1,1.4s.4,1.2,1,1.4v1.2h-1.1l-1.8,2.1c-14.4,3-25.2,15.6-25.6,30.7h-3.3c.2-10,4.7-19.1,11.7-25.4-3.1-2.2-6.6-3.9-10.4-4.9.2-.2.3-.4.3-.6,0-.5-.4-.9-.9-.9h-.8c-.6-1.2-1.8-2.1-3.2-2.3v-1.4l.7-.5-.7-9.1,3.9.6.5-.7h0c0,0,1.7,0,1.7,0v-1h-1.7c0-.1-.5-.8-.5-.8l-3.8.6.6-3.8-.7-.5V0h-1.2v1.6l-.7.5.6,3.8-3.8-.6-.5.7h0c0,.1-1.7.1-1.7.1v1h1.7c0,0,.5.8.5.8l3.9-.6-.7,9.1.7.5v1.4c-1.4.2-2.5,1.1-3.1,2.3h-.8c-.5,0-.9.4-.9.9s.1.5.3.6c-13.5,3.6-23.5,15.7-23.9,30.3h-3.8v3.8s1,.9,1.9,1.8c1,.9,1.9,1.8,1.9,1.8v11.2h-9.5L0,86.3v37.3h94.3l16.2-15.2v-28.5l9.5-8.9v-11.2h0c0,0,3.8-3.6,3.8-3.6v-3.8h-3.8ZM89.5,2.3c0-.8.7-1.5,1.5-1.5s1.5.7,1.5,1.5-.7,1.5-1.5,1.5-1.5-.7-1.5-1.5Z"/>
</svg>