<?xml version="1.0" encoding="UTF-8"?>
<svg id="Layer_2" xmlns="http://www.w3.org/2000/svg" version="1.1" xmlns:xlink="http://www.w3.org/1999/xlink" viewBox="0 0 39.73 23.17">
  <!-- Generator: Adobe Illustrator 29.5.0, SVG Export Plug-In . SVG Version: 2.1.0 Build 137)  -->
  <defs>
    <style>
      .st0 {
        fill: #2d6a34;
      }

      .st1 {
        fill: #fff;
      }

      .st2 {
        fill: none;
      }

      .st3 {
        clip-path: url(#clippath-1);
      }

      .st4 {
        fill: #e81e25;
      }

      .st5 {
        fill: #2d2d86;
      }

      .st6 {
        fill: #f3ea32;
      }

      .st7 {
        clip-path: url(#clippath);
      }
    </style>
    <clipPath id="clippath">
      <rect class="st2" width="39.73" height="23.17"/>
    </clipPath>
    <clipPath id="clippath-1">
      <rect class="st2" width="39.73" height="23.17"/>
    </clipPath>
  </defs>
  <g id="Layer_1-2">
    <g id="PORTUGAL">
      <g class="st7">
        <g>
          <rect class="st4" x="13.89" y="0" width="25.83" height="23.17"/>
          <rect class="st0" y="0" width="13.9" height="23.17"/>
          <g class="st3">
            <g>
              <path class="st6" d="M18.42,15.18c-1.75-.05-9.77-5.06-9.82-5.86l.44-.74c.8,1.16,9,6.03,9.8,5.85l-.42.74h0Z"/>
              <path class="st6" d="M8.95,8.48c-.16.42,2.1,1.82,4.8,3.46,2.71,1.65,5.04,2.67,5.22,2.52,0-.02.08-.15.08-.15-.03.05-.11.06-.23.03-.73-.21-2.64-1.09-5-2.52-2.36-1.43-4.42-2.75-4.74-3.32-.02-.04-.04-.11-.03-.16h0l-.07.12v.02h-.03ZM18.46,15.2s-.08.06-.19.04c-.66-.07-2.64-1.04-4.99-2.44-2.73-1.64-4.99-3.13-4.74-3.52l.06-.12h.01c-.22.67,4.46,3.34,4.73,3.51,2.71,1.68,4.99,2.66,5.19,2.4l-.07.13h0Z"/>
              <path d="M18.36,15.27h-.08c-.67-.07-2.68-1.06-5-2.45-3.1-1.86-4.66-2.98-4.76-3.42-.01-.05,0-.09.01-.12l.06-.12v.02l-.03.11s-.02.06-.01.1c.1.43,1.66,1.55,4.75,3.4,2.32,1.39,4.32,2.37,4.98,2.44.1.01.15,0,.17-.04l.04-.08s-.05.02-.09.02c-.55,0-2.6-.91-5.06-2.45-.03-.01-.09-.05-.19-.11-3.02-1.78-4.56-2.91-4.56-3.36.06.3.77,1.09,4.58,3.33.1.06.16.09.19.11,2.46,1.53,4.5,2.44,5.05,2.44.06,0,.1-.01.12-.03h0s0,.03-.01.04l-.03.11s-.08.06-.12.06h-.01ZM18.9,14.49c-.41,0-2.62-.99-5.16-2.54-2.92-1.77-4.96-3.06-4.81-3.48l.08-.14h0l-.05.13c-.16.44,2.46,2.05,4.79,3.46,2.54,1.55,4.74,2.53,5.15,2.53.03,0,.04,0,.05-.01.01-.03.03-.06.04-.08-.04.02-.11.02-.19,0-.81-.23-2.78-1.17-5.01-2.52-2.15-1.31-4.4-2.73-4.74-3.32-.02-.04-.04-.11-.04-.17.03.06.05.12.07.16.34.59,2.71,2.08,4.73,3.31,2.22,1.35,4.2,2.29,5,2.52.11.03.19.02.22-.02t-.03.13s-.06.06-.09.06h0v-.02Z"/>
              <path class="st6" d="M13.9,9.8c1.75-.01,3.91-.24,5.16-.74l-.27-.43c-.74.41-2.91.67-4.9.71-2.36-.02-4.02-.24-4.85-.8l-.25.47c1.53.65,3.1.79,5.12.79h0Z"/>
              <path class="st6" d="M19.13,9.08c-.04.07-.86.35-2.05.55-.81.12-1.87.23-3.19.23-1.25,0-2.27-.09-3.05-.2-1.25-.2-1.9-.47-2.14-.57.02-.04.04-.08.06-.12.69.27,1.34.44,2.1.55.76.1,1.78.19,3.03.19s2.35-.12,3.16-.24c1.22-.2,1.89-.45,1.99-.57l.09.15h0v.03ZM18.89,8.63c-.13.11-.79.34-1.96.53-.78.11-1.76.21-3.03.21-1.2,0-2.18-.08-2.92-.19-1.18-.15-1.81-.43-2.04-.52.03-.04.05-.07.07-.12.17.09.78.34,1.98.5.73.1,1.72.18,2.91.18,1.26,0,2.23-.1,3-.21,1.17-.16,1.8-.46,1.89-.53l.08.14h.02Z"/>
              <path d="M13.86,9.88c-1.06,0-2.07-.06-3.01-.19-1.22-.19-1.88-.46-2.12-.56v-.07l.03-.08c.68.25,1.33.42,2.12.55.95.13,1.96.19,3.01.19s2.12-.08,3.18-.24c1.21-.2,1.89-.45,1.98-.56l.11.15c-.05.1-.89.38-2.06.58-1,.15-2.07.23-3.19.23h-.05ZM8.76,9l-.04.11c.26.09.91.35,2.13.54.94.13,1.95.19,3.01.19v.02l.04-.02c1.12,0,2.19-.08,3.19-.23,1.23-.21,2-.49,2.04-.55l-.08-.13c-.06.12-.69.37-1.97.58-1.06.16-2.09.24-3.16.24s-2.08-.06-3.03-.2c-.79-.12-1.44-.29-2.1-.56h-.03ZM13.89,9.39c-1.06,0-2.06-.06-2.9-.19-1.04-.14-1.65-.37-1.94-.48l-.1-.04.04-.1s.03-.04.04-.04c.1.05.69.32,1.98.51.58.08,1.55.18,2.89.18,1.06,0,2.02-.07,3.02-.21,1.12-.15,1.78-.44,1.89-.53l.11.15c-.13.13-.78.36-1.97.55-1.01.15-1.97.21-3.03.21h-.03ZM9.01,8.57l-.05.11h.09c.29.13.9.36,1.94.49.84.12,1.84.19,2.9.19v.02l.02-.02c1.06,0,2.02-.07,3.03-.21,1.18-.19,1.82-.42,1.95-.52l-.09-.12c-.06.07-.67.38-1.88.55-1.01.14-1.96.21-3.01.21-1.35,0-2.33-.1-2.91-.18-1.3-.18-1.88-.45-1.99-.51h0Z"/>
              <path class="st6" d="M8.16,11.91c1.07.58,3.47.87,5.73.89,2.06,0,4.75-.32,5.75-.85l-.03-.58c-.31.49-3.19.96-5.74.94-2.55-.02-4.92-.41-5.71-.93v.52h0Z"/>
              <path class="st6" d="M19.69,11.83v.14c-.15.18-1.1.45-2.29.65-.9.14-2.08.24-3.54.24s-2.51-.1-3.37-.23c-1.37-.2-2.23-.55-2.41-.65v-.16c.53.35,1.95.6,2.43.68.86.13,1.96.23,3.35.23,1.46,0,2.63-.11,3.53-.24.85-.13,2.06-.45,2.3-.66h0ZM19.69,11.33v.14c-.15.18-1.1.45-2.29.65-.9.14-2.08.25-3.54.25s-2.51-.1-3.37-.23c-1.36-.2-2.23-.55-2.41-.65v-.16c.53.35,1.95.6,2.43.68.86.13,1.96.23,3.35.23,1.46,0,2.63-.1,3.53-.24.85-.12,2.07-.44,2.3-.66h0Z"/>
              <path d="M13.86,12.87c-1.24,0-2.37-.08-3.37-.23-1.3-.19-2.21-.53-2.42-.65v-.17c.54.34,2,.6,2.44.67.99.15,2.12.23,3.35.23,1.3,0,2.48-.08,3.52-.24.85-.13,2.06-.44,2.29-.65l.03.15c-.16.2-1.13.47-2.3.66-1.05.16-2.25.24-3.55.24h0ZM8.08,11.83l.02.15c.13.07.97.43,2.39.63,1,.15,2.13.23,3.37.23s2.49-.08,3.54-.24c1.14-.18,2.12-.46,2.28-.64v-.13c-.22.22-1.44.55-2.29.67-1.04.16-2.23.24-3.53.24s-2.36-.08-3.35-.23c-.56-.09-1.92-.34-2.44-.68h0ZM13.86,12.38c-1.23,0-2.37-.08-3.37-.24-1.31-.19-2.21-.53-2.42-.65v-.18c.54.34,2,.6,2.44.67,1,.15,2.12.23,3.35.23,1.3,0,2.48-.08,3.52-.24.85-.12,2.06-.44,2.29-.65l.03.15c-.16.2-1.13.47-2.3.66-1.05.16-2.25.24-3.55.24h0ZM8.08,11.33l.02.15c.12.06.96.43,2.4.64,1,.15,2.13.23,3.36.23,1.3,0,2.5-.08,3.54-.24,1.15-.19,2.13-.46,2.28-.64v-.13c-.22.23-1.44.55-2.29.67-1.04.16-2.23.24-3.53.24-1.23,0-2.35-.08-3.35-.23-.56-.09-1.92-.34-2.44-.69h0Z"/>
              <path class="st6" d="M13.88,15.08c-2.48-.01-4.6-.68-5.05-.78l.33.51c.79.34,2.86.83,4.74.78,1.88-.05,3.53-.2,4.69-.77l.33-.53c-.79.37-3.48.79-5.04.79h0Z"/>
              <path class="st6" d="M18.72,14.7c-.05.08-.1.15-.15.22-.55.19-1.41.39-1.77.45-.74.16-1.89.27-2.91.27-2.2-.03-3.99-.46-4.83-.82l-.07-.12v-.02l.13.04c1.5.54,3.19.75,4.79.79,1.02,0,2.03-.12,2.86-.27,1.26-.25,1.77-.44,1.92-.53l.04-.02h-.01ZM19.01,14.22h0c-.04.07-.07.13-.11.19-.29.1-1.08.34-2.24.5-.76.1-1.23.21-2.75.23-2.84-.07-4.68-.63-5.11-.77l-.06-.13c1.64.43,3.32.73,5.18.77,1.39-.03,1.97-.13,2.73-.24,1.35-.21,2.03-.43,2.23-.49h0s.15-.07.15-.07h-.02Z"/>
              <path d="M13.88,15.65h0c-2.24-.03-4-.47-4.84-.83l-.08-.13s.02-.04.03-.04h0l.12.05c1.34.48,2.95.75,4.78.79h0c1.15,0,2.18-.14,2.85-.26,1.41-.28,1.83-.47,1.92-.53,0,0,.02,0,.03-.01h.01s.02.01.02.01c-.05.07-.1.15-.15.22-.55.2-1.41.4-1.78.46-.78.16-1.93.27-2.91.27h0ZM8.98,14.69l.08.11c.89.38,2.73.79,4.82.82.97,0,2.14-.1,2.91-.27.38-.06,1.23-.26,1.77-.45.03-.05.07-.11.11-.16-.13.06-.58.25-1.91.52-.67.12-1.71.27-2.81.27h0c-1.88-.05-3.49-.31-4.84-.79l-.12-.05h-.01ZM13.91,15.16h0c-2.53-.06-4.29-.51-5.11-.77l-.08-.13c1.9.47,3.55.71,5.19.74,1.23-.03,1.84-.11,2.48-.2l.25-.03c1.29-.2,1.98-.42,2.2-.49l.17-.08h0l-.13.09c-.25.09-.93.31-2.23.51l-.25.04c-.64.09-1.25.18-2.48.2-1.65-.03-3.3-.27-5.18-.76l.08.1c.81.25,2.58.69,5.1.76,1.29-.03,1.81-.1,2.42-.19l.32-.04c1.03-.15,1.85-.36,2.24-.5l.11-.18-.09.2c-.4.15-1.22.36-2.25.51l-.32.04c-.61.09-1.14.16-2.43.19h-.01Z"/>
              <path class="st6" d="M13.88,6.43c2.85,0,5.14,2.32,5.14,5.16s-2.29,5.14-5.14,5.14-5.15-2.3-5.15-5.15,2.3-5.15,5.15-5.15h0ZM13.88,5.92c3.12,0,5.66,2.54,5.66,5.66s-2.54,5.66-5.66,5.66-5.65-2.55-5.65-5.66,2.54-5.66,5.65-5.66h0Z"/>
              <path class="st6" d="M13.89,5.85c3.16,0,5.73,2.58,5.73,5.74s-2.58,5.74-5.73,5.74-5.73-2.58-5.73-5.74,2.58-5.74,5.73-5.74h0ZM13.89,5.98c3.08,0,5.61,2.52,5.61,5.61s-2.53,5.61-5.61,5.61-5.6-2.52-5.6-5.61,2.53-5.61,5.6-5.61h0Z"/>
              <path d="M13.89,17.34c-3.17,0-5.75-2.58-5.75-5.75s2.58-5.76,5.75-5.76,5.75,2.58,5.75,5.76-2.58,5.75-5.75,5.75h0ZM13.89,5.87c-3.15,0-5.72,2.57-5.72,5.72s2.56,5.72,5.72,5.72,5.72-2.56,5.72-5.72-2.56-5.72-5.72-5.72h0ZM13.89,17.22c-3.1,0-5.62-2.52-5.62-5.63s2.52-5.63,5.62-5.63,5.62,2.52,5.62,5.63-2.52,5.63-5.62,5.63h0ZM13.89,6c-3.08,0-5.59,2.51-5.59,5.59s2.51,5.59,5.59,5.59,5.59-2.51,5.59-5.59-2.5-5.59-5.59-5.59h0Z"/>
              <path class="st6" d="M13.89,6.33c2.88,0,5.25,2.36,5.25,5.25s-2.37,5.26-5.25,5.26-5.25-2.36-5.25-5.26,2.37-5.25,5.25-5.25h0ZM13.89,6.46c2.81,0,5.12,2.31,5.12,5.13s-2.32,5.13-5.12,5.13-5.13-2.3-5.13-5.13,2.31-5.13,5.13-5.13h0Z"/>
              <path d="M13.89,16.86c-2.9,0-5.27-2.36-5.27-5.27s2.37-5.27,5.27-5.27,5.26,2.36,5.26,5.27-2.36,5.27-5.26,5.27h0ZM13.89,6.35c-2.89,0-5.24,2.35-5.24,5.24s2.35,5.24,5.24,5.24,5.23-2.35,5.23-5.24-2.35-5.24-5.23-5.24h0ZM13.89,16.73c-2.84,0-5.14-2.31-5.14-5.14s2.31-5.15,5.14-5.15,5.14,2.31,5.14,5.15-2.3,5.14-5.14,5.14h0ZM13.89,6.47c-2.82,0-5.11,2.3-5.11,5.11s2.29,5.11,5.11,5.11,5.11-2.29,5.11-5.11-2.29-5.11-5.11-5.11h0Z"/>
              <rect class="st6" x="13.66" y="5.83" width=".5" height="11.54"/>
              <path class="st6" d="M14.08,5.76h.12v11.66h-.12V5.76h0ZM13.59,5.76h.13v11.66h-.13V5.76h0Z"/>
              <path d="M14.2,17.44h-.12l-.02-11.68.14-.02.02,11.68h0s0,.01-.01.01h0ZM14.18,5.76l-.1.02v11.64h.1V5.76h0ZM13.71,17.44h-.13V5.76l.13-.02.02,11.68h0s-.02.02-.02.02ZM13.7,5.76l-.11.02v11.64h.11V5.76h0Z"/>
              <path class="st6" d="M8.13,11.35c.72-.66,3.37-1.09,5.73-1.08,2.35.01,5.14.49,5.75,1.07v.49c-.5-.48-2.67-1.05-5.74-1.05s-5.31.58-5.73,1.07v-.49h-.01Z"/>
              <path d="M8.15,11.79l-.03-.42s.03-.02.03,0v.42h0Z"/>
              <path d="M19.64,11.81l-.04-.43s.04-.02.04,0v.43h0Z"/>
              <path class="st6" d="M13.89,10.7c1.35,0,2.67.13,3.71.33,1.07.22,1.83.48,2.09.79v.15c-.31-.38-1.33-.65-2.12-.81-1.03-.2-2.33-.33-3.68-.33-1.42,0-2.74.14-3.76.33-.82.16-1.91.49-2.05.81v-.16c.08-.22.88-.55,2.03-.78,1.03-.2,2.35-.33,3.78-.34h0ZM13.89,10.21c1.35,0,2.67.13,3.71.33,1.07.22,1.83.48,2.09.79v.15c-.31-.38-1.33-.65-2.11-.81-1.03-.2-2.34-.33-3.68-.33-1.42,0-2.74.14-3.76.34-.79.15-1.92.49-2.05.8v-.15c.08-.22.9-.56,2.03-.78,1.02-.2,2.35-.33,3.78-.34h0Z"/>
              <path d="M8.08,11.99h0s-.01,0-.01-.02v-.16c.08-.24.94-.57,2.04-.79,1.1-.21,2.44-.33,3.78-.34,1.31,0,2.61.12,3.71.33,1.12.23,1.85.5,2.1.79v.16c-.36-.39-1.49-.67-2.13-.79-1.09-.21-2.38-.33-3.64-.33-1.37,0-2.71.12-3.8.33-.89.18-1.91.5-2.03.79h-.02v.03ZM13.89,10.81c1.31,0,2.6.12,3.69.33.65.13,1.78.41,2.12.82l-.03-.14c-.24-.28-.96-.55-2.08-.77-1.1-.21-2.41-.33-3.68-.33-1.37,0-2.71.12-3.81.34-1.22.24-1.95.58-2.01.77v.09c.24-.33,1.37-.63,2.03-.76,1.1-.21,2.43-.33,3.76-.33h0v-.02ZM8.08,11.49h0s-.01,0-.01-.02v-.15c.08-.25.96-.58,2.04-.8,1.09-.21,2.43-.33,3.78-.33s2.62.12,3.71.33c1.12.22,1.85.5,2.1.79v.16c-.36-.39-1.49-.66-2.13-.79-1.09-.21-2.38-.33-3.65-.33-1.35,0-2.68.12-3.78.33-.91.17-1.93.51-2.04.79,0,0,0,.01-.02.01h0ZM13.89,10.32c1.3,0,2.6.11,3.69.33.65.13,1.79.41,2.12.81l-.03-.14c-.24-.28-.96-.55-2.08-.77-1.09-.21-2.4-.33-3.66-.33-1.39,0-2.73.12-3.82.33-1.18.23-1.95.57-2.01.77v.09c.23-.32,1.32-.62,2.03-.76,1.1-.21,2.44-.33,3.76-.33h0Z"/>
              <path class="st6" d="M13.86,7.7c2.13-.01,3.99.3,4.84.74l.31.54c-.74-.4-2.75-.81-5.15-.75-1.96.01-4.06.22-5.11.78l.37-.62c.86-.45,2.9-.67,4.73-.68h.01Z"/>
              <path class="st2" d="M18.76,8.52l.21.34-.21-.34Z"/>
              <path class="st6" d="M13.89,8.14c1.21,0,2.39.07,3.33.24.87.16,1.7.4,1.82.53l.09.16c-.29-.19-1.01-.4-1.93-.57-.93-.17-2.1-.23-3.31-.23-1.37,0-2.44.07-3.36.23-.97.18-1.64.44-1.81.56l.09-.17c.32-.17.83-.36,1.7-.52.94-.17,2.02-.22,3.38-.23h0ZM13.89,7.65c1.17,0,2.32.06,3.21.22.71.14,1.41.35,1.66.54l.14.21c-.23-.25-1.09-.5-1.85-.63-.89-.15-1.99-.21-3.16-.22-1.22,0-2.35.08-3.23.24-.83.16-1.37.35-1.6.49l.12-.18c.32-.17.82-.32,1.47-.44.88-.16,2.02-.23,3.25-.24h0Z"/>
              <path d="M19.13,9.09h0c-.28-.18-.98-.39-1.92-.57-.81-.15-1.88-.23-3.2-.23h-.23c-1.32,0-2.34.07-3.23.23-.97.18-1.63.44-1.8.56l.06-.19c.44-.23,1-.4,1.71-.52.85-.16,1.84-.23,3.39-.23h.07c1.28,0,2.41.08,3.26.23.88.17,1.71.41,1.83.54l.1.16v.02h-.04ZM13.96,8.16h-.07c-1.54.01-2.52.08-3.38.23-.7.13-1.26.3-1.69.52l-.08.17c.14-.15.82-.41,1.79-.59.89-.15,1.92-.23,3.24-.23h.23c1.32,0,2.4.08,3.21.23.89.17,1.57.37,1.88.54l-.06-.11c-.11-.12-.94-.37-1.81-.53-.85-.15-1.97-.23-3.25-.23h0ZM18.9,8.65h-.01c-.24-.26-1.14-.5-1.84-.63-.81-.14-1.84-.21-3.15-.23-1.27,0-2.38.09-3.22.24-.74.14-1.34.33-1.6.49l.1-.2c.32-.17.83-.32,1.48-.45.83-.15,1.96-.23,3.25-.24h.1c1.23,0,2.31.08,3.12.22.76.15,1.43.37,1.67.55l.14.22v.02h-.04ZM13.89,7.76c1.31.01,2.35.08,3.16.23.64.11,1.45.32,1.78.56l-.08-.12c-.23-.17-.9-.39-1.65-.54-.81-.15-1.89-.22-3.11-.22h-.1c-1.29,0-2.41.09-3.24.24-.65.13-1.15.28-1.46.44l-.11.18c.24-.19.84-.38,1.58-.52.84-.15,1.96-.24,3.23-.24h0Z"/>
              <path class="st6" d="M16.74,13.98c-1.05-.2-2.11-.23-2.85-.22-3.56.04-4.7.73-4.84.94l-.27-.43c.91-.66,2.84-1.02,5.13-.99,1.19.02,2.22.1,3.08.27l-.25.43h0Z"/>
              <path class="st2" d="M8.84,14.32l.17.3-.17-.3Z"/>
              <path class="st6" d="M13.87,13.7c.99.01,1.96.06,2.9.23l-.07.12c-.87-.16-1.8-.22-2.83-.22-1.31-.01-2.64.11-3.79.44-.37.1-.97.34-1.03.53l-.06-.11c.02-.11.38-.35,1.07-.54,1.32-.38,2.56-.44,3.82-.45h-.01ZM13.91,13.2c1.03.02,2.08.07,3.11.27l-.07.12c-.93-.18-1.82-.25-3.03-.27-1.32,0-2.71.1-3.98.47-.41.12-1.12.38-1.14.58l-.07-.12c.01-.19.62-.43,1.18-.59,1.28-.37,2.68-.46,4-.47h0Z"/>
              <path d="M9.05,14.82h-.01l-.07-.12c.02-.14.41-.38,1.08-.57,1.26-.36,2.44-.44,3.82-.45.94.02,1.94.05,2.9.23l-.06.14c-.81-.14-1.69-.21-2.71-.21h-.28c-1.39,0-2.62.15-3.64.44-.39.11-.96.34-1.02.52,0,0,0,.01-.01.01h0ZM13.87,13.71c-1.38,0-2.55.09-3.82.45-.69.2-1.04.43-1.05.53l.05.08c.12-.22.77-.44,1.03-.51,1.03-.29,2.25-.44,3.65-.44h.28c1.02,0,1.91.07,2.7.22l.05-.11c-.95-.15-1.95-.19-2.88-.2h0v-.02ZM8.8,14.39h-.01l-.07-.12c.02-.26.91-.53,1.19-.61,1.09-.32,2.36-.47,4.01-.47,1.01.02,2.08.07,3.12.27l-.06.14c-1-.19-1.94-.24-3.05-.26-1.63,0-2.9.15-3.98.47-.53.16-1.11.4-1.13.57,0,0,0,.01-.01.01h0ZM13.91,13.21c-1.64,0-2.91.15-4,.47-.7.2-1.16.43-1.17.57l.05.08c.11-.25,1.03-.53,1.14-.56,1.09-.32,2.35-.46,3.99-.47,1.11.02,2.05.07,3.04.27l.05-.12c-1.02-.18-2.09-.23-3.1-.25h0Z"/>
              <path d="M12.85,13.55s0-.03.02-.04c.01-.01.02-.02.04-.02h.02s.01.01.01.02v.06s-.01.02-.02.02h-.06s-.01-.01-.01-.02v-.02h0ZM12.86,13.54v.03h.02s.02,0,.03-.01c0,0,0-.02.01-.04v-.02h0s-.01-.01-.02-.01c0,0-.02,0-.03.01,0,0-.01.02-.01.03h0ZM13,13.56h.01s0,.01.01.01h.01s0-.01-.01-.01h-.02v-.02s0,0,0,0h.03-.03s.01.01.01.01h.02v.02h-.04v-.02h.01ZM13.13,13.55h.01s0,.02-.01.02h-.04v-.03s0-.02.01-.03c0,0,.02-.01.03-.01h.02v.03h-.06v.03h.02v-.02h.02ZM13.09,13.54h.04v-.02h-.02v.02h-.02ZM13.16,13.58h.03v-.03s-.01.01-.02.01-.02,0-.02-.01v-.05s0-.01.01-.01h.01s.02,0,.02.01h.01s0,.06,0,.06v.02s-.01.01-.02.01h-.04s-.01,0,0-.02h.02ZM13.17,13.54v.02h.03v-.04h-.02v.02h-.01ZM13.24,13.57v-.08h.09v.07h-.02v-.05h0s-.01-.01-.02-.01v.06h-.02v-.05h0s-.02-.01-.02-.01h0v.06h-.02.01ZM13.41,13.54h.01s0,.02-.01.02h-.02s-.02,0-.02-.01v-.03s0-.02.02-.03c0,0,.01-.01.03-.01h.02v.03h-.05v.02h.02s0,0,0,0ZM13.38,13.52h.04s0-.02-.01-.02h-.01v.02h-.02ZM13.44,13.56v-.08h.05v.07h-.01v-.04h0v-.02h-.01v.06h-.03ZM13.55,13.55h0s0,.01-.01.01h0v-.05h0v-.02h.02v.03h-.01v.05h0v-.02ZM13.57,13.52s0-.03.01-.03h.02s.02-.01.02,0v.05h-.01s-.01.01-.02.01h-.02v-.03h0ZM13.58,13.52v.02h.04v-.04h-.03v.02h-.01ZM13.74,13.53h.01l-.02.02h-.02s-.02,0-.03-.01v-.03s0-.02.01-.03c0,0,.02-.01.03-.01s.02,0,.02.01v.03h-.06v.02h.04s.02,0,.02,0ZM13.7,13.51h.04v-.02h-.03s0,.02,0,.02ZM13.76,13.55l.02-.11h.01v.11h-.03ZM13.81,13.46h.01s-.01,0-.01,0h0ZM13.79,13.55v-.08h.03v.08h-.03ZM13.83,13.55v-.08h.09v.07h-.02v-.05h0s0-.01-.01-.01h-.01v.06h-.02v-.05h0s0-.01-.01-.01h0v.06h-.02,0ZM13.96,13.46h.01s-.01,0-.01,0h0ZM13.95,13.55v-.08h.03v.08h-.03ZM13.98,13.55v-.07h.07v.08h-.02v-.05h-.02v.06h-.02v-.02ZM14.11,13.55h-.04v-.02h0s0,0,.01,0h.02s0-.01-.01-.01h-.01s-.01.01-.01.01v-.02h.04v.05h-.01s.01,0,.01,0ZM14.11,13.52h-.02v.02h.01v-.02ZM14.19,13.56h-.03v-.05h.01s0-.01.01-.01h.01v-.04h.02l-.02.11h-.01.01ZM14.15,13.52v.02h.03v-.04h-.02v.02h-.01ZM14.22,13.51s0-.02.02-.03c0,0,.02-.01.03-.01s.02,0,.02.01v.05s0,.01-.01.01h-.02s-.02,0-.02-.01v-.03h-.02ZM14.23,13.52v.02h.03s0-.01.01-.02v-.02h-.03s0,.01-.01.02h0ZM14.34,13.56v-.08h.03-.01v.06h-.02v.02ZM14.44,13.54h.01s0,.01-.01.02-.01,0-.02,0c0,0-.02,0-.02-.01v-.03s0-.02.01-.03c0,0,.02-.01.03-.01,0,0,.02,0,.02.01v.03h-.06v.02h.02s.02,0,.02,0ZM14.41,13.51h.04s0-.02-.01-.02h-.01v.02h-.02ZM14.47,13.54h.01s0,.01.01.01h.01-.03v-.02h.01s.01,0,.01,0h.01s-.01.01-.01.01h-.01s.01.01.02.01h0v.02h-.01s0,.01-.01.01h-.02v-.02h0v-.02ZM14.53,13.59l.02-.11h.05s0,.04-.01.05c0,0,0,.01-.01.01h-.02v.04h-.03ZM14.56,13.53v.02h.02s0-.01.01-.02v-.02h-.03v.02h0ZM14.68,13.54h.01s0,.02-.01.02h-.02s-.02,0-.03-.01v-.03s0-.02.02-.03c0,0,.02-.01.03-.01s.02,0,.02.01v.03h-.06v.02h.02s.02,0,.02,0ZM14.64,13.52h.04s0-.01-.01-.01h-.02v.02h-.01ZM14.72,13.48v-.02h.01v.02h-.01ZM14.7,13.57v-.08h.03v.08h-.03ZM14.76,13.56h0s0,.01-.01.01c-.01,0,0,0,0,0v-.06h0v-.03h.02v.03h-.01v.06h0ZM14.82,13.57h-.05v-.02h.03s0-.02-.01-.02h-.02s-.01.01-.01.01v-.02h.03v.06h-.01s.04,0,.04,0ZM14.82,13.54h-.02s0,.01.01.01h.01ZM14.89,13.54s0-.02.02-.03h.03s.02,0,.02.01v.05s-.01.01-.02.01h-.01s-.02,0-.03-.01v-.03h-.01ZM14.91,13.54v.02h.02s.01-.01.01-.02v-.02h-.03v.02h0ZM15,13.61l.02-.1h.04v.05s0,.01-.01.01h-.02v.04h-.03ZM15.03,13.55v.02s0,.01.01.01h.02v-.04h-.03v.02h0ZM15.09,13.59l.02-.08h.01s0,0,0,0h-.01v.07h-.02ZM15.14,13.55s0-.03.02-.03h.02s.02,0,.02.01v.03s0,.02-.01.02c0,0,0,.01-.01.01h-.02s-.02,0-.03-.01v-.03h.01ZM15.15,13.55v.02h.03s0-.01.01-.02v-.02s0-.01-.01-.01-.01,0-.02.01v.02h-.01ZM15.23,13.51h.01s-.01,0-.01,0h0ZM15.19,13.63h0v-.02l.02-.08h.01l-.02.08v.02h-.02.01ZM15.3,13.58h.01s0,.01-.01.02h-.02s-.02,0-.02-.01v-.03s0-.02.02-.03c0-.01.02-.01.03-.01,0,0,.02,0,.02.01v.03h-.06v.02h.03s0,0,0,0ZM15.27,13.55h.04s0-.01-.01-.01h-.03Z"/>
              <path d="M15.38,13.58h.01s0,.02-.01.02h-.02s-.02,0-.03-.01v-.03s0-.02.01-.02c0,0,0-.01.01-.01h.04s-.01.01-.01.01h-.02s0,.01-.01.02v.02h.03s0,0,0,0ZM15.43,13.6h0s0,.01-.01.01h0v-.06h0v-.02h.02v.03h-.01v.05h0ZM15.44,13.58s0-.03.02-.03h.03s.02,0,.02.01v.05s-.01,0-.02.01h-.02s-.02,0-.02-.01v-.03h-.01ZM15.45,13.58v.02h.01s0,.01.01.01c0,0,0-.01.01-.02v-.02h-.03v.02h0ZM15.6,13.63h-.04v-.05s.01-.01.01-.02h.03s0-.03,0-.03h.02l-.03.11h-.01.02ZM15.57,13.59v.02s0,.01.01.01h.01v-.02s.01-.02.01-.02h-.02s0,.01-.01.02h0ZM15.69,13.61h.01s0,.02-.02.02h-.02s-.01,0-.02-.01v-.03s0-.02.02-.03c0,0,.01-.01.03-.01.01,0,.02,0,.02.01v.03h-.06v.02h.03s0,0,0,0ZM15.65,13.59h.04s0-.02-.01-.02h-.01v.02h-.02ZM15.83,13.61h.01s-.01.03-.02.03h-.03s-.02,0-.03-.01c0,0,0-.01-.01-.02v-.03s0-.02.01-.03c0,0,.01-.01.02-.01h.05s.01.02.01.03h-.01v-.02h-.01s-.01-.01-.02-.01c0,0-.01.01-.01.02v.06h.03s0-.01.01-.02h0ZM15.86,13.62s.01-.02.02-.03h.03s.01,0,.02.01v.05h-.03s-.02,0-.02-.01v-.03h-.02ZM15.87,13.62v.02h.01s.01.01.02.01c0,0,.01-.01.01-.02v-.02h-.03s0,.01-.01.02h0ZM15.93,13.67l.03-.11h.01l-.03.11h-.01ZM16.01,13.67h-.04v-.07h.03v.04s-.02.01-.02.02h.02v-.05h.03l-.02.08h0v-.02ZM16.04,13.68l.02-.08h.01s0,.01.01.01h.06v.08h-.03v-.05h.01s-.01-.01-.02-.01v.06h-.02v-.05h.01s0,0,0,.01v.04h-.05ZM16.17,13.69h-.01l.03-.1h.02v.04s.01,0,.01,0h.01v.03s0,.03-.02.04h-.03s-.01,0-.01-.02h0ZM16.18,13.65v.02s0,.02.01.02h.01s.01-.01.01-.02v-.02s0-.01-.01-.01h-.02s0,.01-.01.02h.01ZM16.29,13.7h-.03s-.01,0-.02-.01v-.02h0s.01-.01.01-.01h.02s0-.01-.01-.01h-.01s-.01.01-.01.01h0s0-.01.01-.01h.03v.05h-.01s.02,0,.02,0ZM16.29,13.67h-.02s0,.01.01.01h.02s-.01-.01-.01-.01ZM16.31,13.72l.02-.08h.04v.07h-.03v-.05h.01v-.02h-.02s0,.01-.01.02v.04h-.03l.02.02ZM16.4,13.69s0-.02.02-.03h.03s.02,0,.02.01v.03s0,.02-.01.02h-.02s-.01.01-.02.01-.02,0-.02-.01v-.03h0ZM16.41,13.69v.02h.01s0,.01.01.01c0,0,0-.01.01-.02v-.02s0-.01-.01-.01h-.01s-.01.01-.01.02h0Z"/>
              <path class="st4" d="M16.71,14.06h-.01s-.02-.02-.01-.04l.31-.55s.02-.02.04,0c.01,0,.02.02.01.03l-.31.56s-.01.01-.02.01h-.01Z"/>
              <path class="st6" d="M9.08,8.37c1.76-.02,9.89,4.97,9.92,5.89l-.5.78c-.23-1.07-8.48-5.93-9.84-5.84l.43-.83h-.01Z"/>
              <path d="M18.55,15l.4-.68s.02-.01.02,0v.02l-.43.66h.01Z"/>
              <path d="M8.69,9.16l.37-.75s.01-.01.03,0v.02l-.4.74h0Z"/>
              <path class="st6" d="M8.6,9.17c.33-.22,2.73.85,5.24,2.37,2.51,1.52,4.9,3.24,4.69,3.56l-.07.11-.04.03s.04-.05,0-.17c-.11-.35-1.81-1.71-4.62-3.41-2.75-1.64-5.04-2.63-5.27-2.35l.07-.14h0ZM19.05,14.32c.21-.41-2.02-2.09-4.78-3.72-2.83-1.6-4.86-2.55-5.23-2.26l-.09.15.02-.02c.07-.06.18-.06.23-.06.64,0,2.47.85,5.04,2.32,1.13.66,4.75,2.98,4.74,3.64,0,.05,0,.07-.02.1l.09-.14h0Z"/>
              <path d="M18.44,15.24l-.02-.02h0s.04-.04,0-.15c-.11-.36-1.91-1.76-4.62-3.4-2.32-1.39-4.47-2.39-5.1-2.39-.08,0-.12.01-.15.04h0v-.03l.03-.13s.09-.04.15-.04c.64,0,2.89,1.05,5.11,2.4,2.26,1.37,4.6,3.01,4.71,3.49,0,.04,0,.07-.01.09l-.07.11s-.01,0-.02.01c0,.01-.01.02-.01.02h0ZM8.69,9.24c.64,0,2.79,1.01,5.12,2.4,2.76,1.67,4.52,3.04,4.63,3.42.02.05.02.09.02.11l.06-.09s.01-.04,0-.07c-.1-.47-2.49-2.14-4.69-3.47-2.22-1.34-4.47-2.39-5.1-2.39-.06,0-.1,0-.13.02l-.04.09s.06-.02.12-.02h.01ZM18.97,14.46h0v-.02h0v.02-.07c.01-.67-3.68-3.03-4.73-3.64-2.56-1.47-4.39-2.32-5.03-2.32-.06,0-.16,0-.22.05h0c.06-.08.16-.08.21-.08.66,0,2.49.86,5.06,2.33.74.43,4.76,2.94,4.74,3.65h0l.05-.06c.19-.38-1.91-2-4.78-3.7-3.04-1.72-4.88-2.52-5.21-2.27l-.07.13h-.04s.09-.15.09-.15c0,0,.12-.06.22-.06.79,0,3.18,1.26,5.04,2.32,2.5,1.48,5.02,3.29,4.79,3.75l-.08.13h-.04Z"/>
              <path class="st1" d="M10.45,12.22c0,.94.38,1.8,1.01,2.42.62.63,1.47,1.02,2.42,1.02s1.81-.39,2.44-1.01c.62-.62,1.01-1.48,1.01-2.43h0v-4.59h-6.87v4.59h-.01Z"/>
              <path d="M13.88,15.68c-.9,0-1.77-.36-2.43-1.02-.66-.65-1.02-1.52-1.02-2.43v-4.59h6.9l.02,4.6c0,.92-.37,1.79-1.02,2.44-.65.65-1.52,1.01-2.45,1.01h0ZM17.31,7.64h-6.85l.02,4.59c0,.9.36,1.76,1,2.41.66.65,1.51,1.01,2.41,1.01s1.77-.35,2.42-1,1-1.5,1-2.41v-4.59h0Z"/>
              <path class="st4" d="M10.58,12.23h0c0,.9.37,1.73.97,2.32.6.6,1.42.97,2.33.97s1.73-.37,2.32-.96c.6-.59.97-1.42.97-2.32h0v-4.45h-6.59v4.44h0ZM15.85,9.12v3.13h0c0,.08,0,.17-.01.25-.05.45-.26.84-.56,1.14-.36.36-.85.58-1.39.58s-1.02-.23-1.38-.59c-.36-.37-.58-.87-.58-1.39v-3.13h3.93-.01Z"/>
              <path d="M13.88,15.53c-.88,0-1.71-.35-2.34-.97-.63-.63-.98-1.46-.98-2.33v-4.45l6.61-.02v4.47c.01.88-.33,1.7-.96,2.33-.63.62-1.46.97-2.34.97h0ZM17.16,7.78h-6.58v4.44c.01.87.35,1.69.97,2.31.62.62,1.45.96,2.32.96s1.7-.34,2.32-.96c.62-.62.96-1.44.96-2.31v-4.45h.01ZM13.88,14.22c-.51,0-1.01-.21-1.39-.59-.37-.37-.59-.88-.59-1.4v-3.14h3.95v2.86s.01.3.01.3c0,.08,0,.17-.02.25-.05.44-.25.83-.57,1.15-.37.38-.87.58-1.4.58h0ZM11.93,9.12v3.12c0,.51.21,1.01.58,1.38.37.38.86.58,1.37.58s1.01-.2,1.38-.57c.32-.32.51-.71.56-1.13,0-.08.01-.17.01-.24v-3.13h-3.9Z"/>
              <path class="st5" d="M13.47,11.72h0c0,.13.05.25.13.33.08.09.19.14.31.14s.23-.05.31-.14c.08-.08.13-.2.13-.33v-.62h-.87v.62h-.01Z"/>
              <path class="st1" d="M14.15,11.25s-.09.04-.09.09.04.08.09.08.09-.04.09-.08c0-.05-.04-.09-.09-.09h0Z"/>
              <path class="st1" d="M13.91,11.48s-.09.04-.09.09.04.08.09.08.08-.04.08-.08-.04-.09-.08-.09h0Z"/>
              <path class="st1" d="M14.15,11.72s-.09.04-.09.09.04.08.09.08.09-.04.09-.08-.04-.09-.09-.09h0Z"/>
              <path class="st1" d="M13.68,11.73s-.08.04-.08.09.04.08.08.08.08-.04.08-.08-.04-.09-.08-.09h0Z"/>
              <path class="st1" d="M13.68,11.25s-.09.04-.09.08c0,.05.04.09.09.09s.08-.04.08-.09-.04-.08-.08-.08h0Z"/>
              <path class="st5" d="M13.46,13.22h0c0,.13.05.25.13.33.08.09.19.14.3.14.12,0,.23-.05.31-.14.08-.08.13-.2.13-.33v-.62h-.87v.62h0Z"/>
              <path class="st1" d="M14.14,12.75s-.08.04-.08.08.04.08.08.08.08-.04.08-.08-.04-.08-.08-.08h0Z"/>
              <path class="st1" d="M13.9,12.98s-.08.04-.08.08.04.08.08.08.08-.04.08-.08-.04-.08-.08-.08h0Z"/>
              <path class="st1" d="M14.14,13.22s-.09.04-.09.09.04.08.09.08.08-.04.08-.08c0-.05-.04-.09-.08-.09h0Z"/>
              <path class="st1" d="M13.67,13.22s-.08.04-.08.09.04.09.08.09c.05,0,.09-.04.09-.09s-.04-.09-.09-.09h0Z"/>
              <path class="st1" d="M13.67,12.74s-.08.04-.08.08c0,.05.04.09.08.09s.09-.04.09-.09c0-.04-.04-.08-.09-.08h0Z"/>
              <path class="st5" d="M12.26,11.73h0c0,.13.05.25.13.33.08.09.19.14.31.14s.23-.05.31-.14c.08-.08.13-.2.13-.33v-.62h-.87v.62h-.01Z"/>
              <path class="st1" d="M12.94,11.25s-.09.04-.09.09.04.09.09.09.09-.04.09-.09-.04-.09-.09-.09h0Z"/>
              <path class="st1" d="M12.7,11.49s-.08.04-.08.08.04.08.08.08.09-.04.09-.08-.04-.08-.09-.08h0Z"/>
              <path class="st1" d="M12.94,11.73s-.09.04-.09.08.04.08.09.08.08-.04.08-.08-.04-.08-.08-.08h0Z"/>
              <path class="st1" d="M12.47,11.73s-.09.04-.09.08.04.09.09.09.08-.04.08-.09-.04-.08-.08-.08h0Z"/>
              <path class="st1" d="M12.47,11.25s-.08.04-.08.09.04.09.08.09c.05,0,.08-.04.08-.09s-.04-.09-.08-.09h0Z"/>
              <path class="st5" d="M14.67,11.73h0c0,.13.05.25.12.33.08.09.19.14.31.14s.23-.05.31-.14c.08-.08.13-.2.13-.33v-.62h-.87v.62h0Z"/>
              <path class="st1" d="M15.35,11.25s-.09.04-.09.09.04.09.09.09.08-.04.08-.09-.04-.09-.08-.09h0Z"/>
              <path class="st1" d="M15.11,11.49s-.09.04-.09.08.04.08.09.08.09-.04.09-.08-.04-.08-.09-.08h0Z"/>
              <path class="st1" d="M15.35,11.73s-.08.04-.08.09.04.08.08.08c.05,0,.09-.04.09-.08s-.04-.09-.09-.09h0Z"/>
              <path class="st1" d="M14.88,11.73s-.09.04-.09.08.04.08.09.08.08-.04.08-.08-.04-.08-.08-.08h0Z"/>
              <path class="st1" d="M14.88,11.25s-.09.04-.09.09.04.09.09.09.08-.04.08-.09-.04-.09-.08-.09h0Z"/>
              <path class="st5" d="M13.47,10.22h0c0,.13.05.24.13.33.08.08.19.14.31.14s.23-.05.31-.14c.08-.08.13-.2.13-.33v-.63h-.87v.63h-.01Z"/>
              <path class="st1" d="M14.15,9.74s-.09.04-.09.09.04.08.09.08.09-.04.09-.08-.04-.09-.09-.09h0Z"/>
              <path class="st1" d="M13.91,9.98s-.09.04-.09.08.04.09.09.09.08-.04.08-.09-.04-.08-.08-.08h0Z"/>
              <path class="st1" d="M14.15,10.22s-.09.04-.09.08c0,.05.04.09.09.09s.09-.04.09-.09-.04-.08-.09-.08h0Z"/>
              <path class="st1" d="M13.68,10.22s-.08.04-.08.08c0,.05.04.09.08.09s.08-.04.08-.09c0-.04-.04-.08-.08-.08h0Z"/>
              <path class="st1" d="M13.68,9.74s-.09.04-.09.09.04.08.09.08.08-.04.08-.08c0-.05-.04-.09-.08-.09h0Z"/>
              <path class="st6" d="M11.01,8.94c0-.32.23-.39.23-.39,0,0,.25.08.25.4h-.48Z"/>
              <path class="st6" d="M10.81,8.55l-.04.37h.24c0-.3.23-.36.23-.35,0,0,.23.07.24.35h.24l-.05-.37h-.87.01Z"/>
              <path d="M11.74,8.94h-.26c-.02-.29-.24-.35-.24-.35,0,0-.22.04-.22.34h-.25l.02-.37h.88l.06.39h0ZM11.22,8.56h-.41l-.02.36h.22c-.01-.26.15-.34.21-.36h0ZM11.27,8.56c.06.02.22.11.23.36h.21l-.04-.37h-.4Z"/>
              <path class="st6" d="M10.76,8.92h.98s.04.02.04.05c0,.02-.01.04-.04.04h-.98s-.04-.02-.04-.04c0-.03.01-.05.04-.05h0Z"/>
              <path d="M11.74,9.03h-.98s-.06-.03-.06-.06c0-.04.02-.06.06-.06h.98s.05.03.05.06-.03.06-.05.06h0ZM10.76,8.94v.06h.98s.02-.01.02-.03l-1-.03h0Z"/>
              <path class="st6" d="M11.12,8.92c0-.19.13-.25.13-.25,0,0,.14.06.14.25h-.27Z"/>
              <path d="M11.4,8.93h-.28c-.01-.21.12-.27.13-.27s.15.06.15.26h0ZM11.24,8.69s-.11.05-.11.23h.24c0-.18-.12-.23-.13-.23h0Z"/>
              <path class="st6" d="M10.78,8.4h.94s.04.02.04.04-.02.04-.04.04h-.94s-.04-.02-.04-.04.02-.04.04-.04h0Z"/>
              <path d="M11.72,8.49h-.94s-.05-.02-.05-.05.02-.05.05-.05h.94s.05.02.05.05-.02.05-.05.05h0ZM10.78,8.42v.05h.94s.02-.01.02-.02l-.96-.03h0Z"/>
              <path class="st6" d="M10.8,8.48h.9s.04.02.04.04-.01.04-.04.04h-.9s-.03-.02-.03-.04.01-.04.03-.04h0Z"/>
              <path d="M11.7,8.58h-.9s-.05-.03-.05-.06.02-.06.05-.06h.9s.05.03.05.06-.02.06-.05.06h0ZM10.8,8.49v.06h.9s.02-.01.02-.03l-.92-.03h0Z"/>
              <path class="st6" d="M11.09,7.87h.07v.05h.05v-.05h.07v.05h.05v-.05h.07v.12s-.01.03-.03.03h-.25s-.03-.02-.03-.03v-.12h0Z"/>
              <path d="M11.38,8.03h-.27l-.04-.04v-.12l.09-.02v.07l.05-.02v-.04l.07-.02v.07l.05-.02v-.04l.07-.02v.15l-.03.03h0v.02ZM11.15,7.87h-.06v.12s.28.03.28.03l.02-.03v-.12h-.06v.05s-.06.02-.06.02v-.07h-.07v.05l-.05.02v-.07h-.01,0Z"/>
              <polygon class="st6" points="11.35 8.03 11.37 8.4 11.12 8.4 11.14 8.02 11.35 8.03 11.35 8.03"/>
              <path d="M11.39,8.41h-.27v-.39h.23s.03.39.03.39h.01ZM11.34,8.03h-.2v.38h.22v-.38h-.02Z"/>
              <path class="st6" d="M11.4,8.05h.07v.05h.05v-.05h.07v.05h.05v-.05h.07v.12s-.01.03-.03.03h-.25s-.03-.01-.03-.03v-.11h0Z"/>
              <path d="M11.68,8.21h-.26l-.03-.04v-.11l.08-.02.02.07h.04v-.05s.07,0,.07,0l.02.05h.04l-.02-.05h.08v.13s-.04.03-.04.03h0ZM11.45,8.05h-.05v.11s.28.03.28.03l.02-.03v-.12l-.05.02v.04h-.05s0-.06,0-.06l-.07.02v.04h-.05s0-.05,0-.05h-.03Z"/>
              <polygon class="st6" points="11.67 8.2 11.67 8.4 11.43 8.4 11.44 8.2 11.67 8.2"/>
              <path d="M11.69,8.41h-.25v-.22h.23s.02.22.02.22h0ZM11.65,8.2h-.21v.2h.21v-.2h0Z"/>
              <path class="st6" d="M10.78,8.05h.07v.05h.05v-.05h.07v.05h.05v-.05h.07v.12s-.01.03-.03.03h-.25s-.03-.01-.03-.03v-.11h0Z"/>
              <path d="M11.06,8.21h-.26l-.03-.04v-.11l.08-.02v.07h.05s-.02-.05-.02-.05h.09v.05h.05l-.02-.05h.09v.13s-.04.03-.04.03h.01ZM10.84,8.05h-.05v.11s.28.03.28.03l.02-.03v-.12l-.05.02v.04h-.05s0-.05,0-.05h-.07v.05h-.05s0-.05,0-.05h-.03Z"/>
              <polygon class="st6" points="11.05 8.2 11.06 8.4 10.82 8.4 10.83 8.2 11.05 8.2"/>
              <path d="M11.08,8.41h-.25v-.22h.23s.02.22.02.22h0ZM11.04,8.2h-.21v.2h.21v-.2h0Z"/>
              <path d="M11.22,8.14s.05-.04.05,0v.09h-.05v-.09h0Z"/>
              <path d="M11.53,8.27s.05-.04.05,0v.07h-.05v-.07h0Z"/>
              <path d="M10.91,8.27s.05-.04.05,0v.07h-.05v-.07h0Z"/>
              <path class="st6" d="M13.73,7.87h.07v.05h.05v-.05h.07v.05h.06v-.05h.07v.12s-.01.03-.03.03h-.26s-.03-.01-.03-.03v-.12h0Z"/>
              <path d="M14.02,8.03h-.27l-.04-.04v-.12l.09-.02v.07h.05v-.05l.07-.02v.07h.06s-.02-.05-.02-.05l.09-.02v.15l-.03.03h0ZM13.79,7.87h-.06v.12s.28.03.28.03l.02-.03v-.12h-.06v.05s-.06.02-.06.02v-.07h-.07s.02.05.02.05l-.06.02-.02-.07h0Z"/>
              <polygon class="st6" points="14 8.03 14.02 8.4 13.77 8.4 13.79 8.03 14 8.03 14 8.03"/>
              <path d="M14.03,8.41h-.26v-.39h.23s.03.39.03.39h0ZM13.99,8.03h-.2v.38h.22v-.38h-.02Z"/>
              <path class="st6" d="M14.04,8.05h.07v.05h.05v-.05h.07v.05h.05v-.05h.07v.12s-.01.03-.03.03h-.25s-.03-.01-.03-.03v-.11h0Z"/>
              <path d="M14.33,8.21h-.27l-.03-.04v-.11l.08-.02.02.07h.03v-.05s.07,0,.07,0l.02.05h.03v-.05s.07,0,.07,0v.13s-.03.03-.03.03h.01ZM14.1,8.05h-.06v.11s.28.03.28.03l.02-.03v-.12l-.06.02.02.04h-.07v-.05s-.07.02-.07.02v.04h-.05s0-.05,0-.05h-.01Z"/>
              <polygon class="st6" points="14.31 8.2 14.32 8.4 14.08 8.4 14.09 8.2 14.31 8.2"/>
              <path d="M14.07,8.41v-.22h.25s.02.21.02.21h-.27ZM14.3,8.2h-.21v.19h.22l-.02-.19h.01Z"/>
              <path class="st6" d="M13.43,8.05h.07v.05h.05v-.05h.07v.05h.05v-.05h.08v.12s-.01.03-.03.03h-.25s-.03-.01-.03-.03v-.11h-.01Z"/>
              <path d="M13.71,8.21h-.27l-.03-.04v-.11l.08-.02v.07h.05v-.04l.07-.02v.07h.05v-.04l.07-.02v.14l-.03.03h0v-.02ZM13.49,8.05h-.06v.11s.28.03.28.03v-.15s-.05,0-.05,0l.02.05h-.07v-.05h-.06l.02.05h-.07v-.05h-.01Z"/>
              <polygon class="st6" points="13.7 8.2 13.71 8.4 13.47 8.4 13.47 8.2 13.7 8.2"/>
              <path d="M13.72,8.41h-.25v-.22h.23s.02.22.02.22h0ZM13.68,8.2h-.21v.2h.21v-.2h0Z"/>
              <path class="st6" d="M13.66,8.94c0-.32.23-.39.24-.4,0,0,.24.08.24.4h-.48Z"/>
              <path class="st6" d="M13.46,8.55l-.04.37h.24c0-.3.23-.35.23-.35,0,0,.23.07.24.35h.24l-.04-.37s-.87,0-.87,0Z"/>
              <path d="M14.39,8.94h-.25c-.02-.29-.24-.35-.24-.35,0,0-.22.05-.22.34h-.25l.03-.37h.88l.06.38h0ZM13.87,8.56h-.41l-.03.36h.22c-.01-.26.15-.34.21-.36h0ZM13.92,8.56c.06.02.23.11.23.36h.21l-.04-.37h-.4,0Z"/>
              <path class="st6" d="M13.4,8.92h.98s.04.02.04.05c0,.02-.02.04-.04.04h-.98s-.04-.02-.04-.04c0-.03.02-.05.04-.05h0Z"/>
              <path d="M14.39,9.03h-.98s-.05-.03-.05-.06c0-.04.02-.06.05-.06h.98s.05.03.05.06-.03.06-.05.06h0ZM13.4,8.94v.06h.98s.02-.01.02-.03l-1.01-.03h0Z"/>
              <path class="st6" d="M13.76,8.92c0-.19.13-.25.13-.25,0,0,.14.06.14.25h-.27Z"/>
              <path d="M14.04,8.94h-.28c-.01-.21.12-.27.12-.28.01,0,.16.06.16.26h0v.02ZM13.89,8.69s-.11.05-.11.23h.24c0-.18-.12-.23-.13-.23h0Z"/>
              <path class="st6" d="M13.43,8.4h.94s.04.02.04.04-.01.04-.04.04h-.94s-.04-.02-.04-.04.01-.04.04-.04h0Z"/>
              <path d="M14.37,8.5h-.94s-.05-.02-.05-.05.02-.05.05-.05h.94s.05.02.05.05-.02.05-.05.05h0ZM13.43,8.42v.05h.94s.02-.01.02-.02l-.96-.03h0Z"/>
              <path class="st6" d="M13.45,8.48h.9s.04.02.04.04-.02.04-.04.04h-.9s-.04-.02-.04-.04c0-.03.02-.04.04-.04h0Z"/>
              <path d="M14.34,8.58h-.9s-.05-.03-.05-.06.02-.06.05-.06h.9s.05.03.05.06-.02.06-.05.06h0ZM13.45,8.5v.05h.9s.02,0,.02-.02l-.92-.03h0Z"/>
              <path d="M13.87,8.14s.05-.04.05,0v.09h-.05v-.09h0Z"/>
              <path d="M14.18,8.27s.05-.04.05,0v.07h-.05v-.07h0Z"/>
              <path d="M13.56,8.27s.05-.04.05,0v.07h-.05v-.07h0Z"/>
              <path class="st6" d="M16.35,7.87h.07v.05h.05v-.05h.07v.05h.05v-.05h.07v.12s-.01.03-.03.03h-.25s-.03-.01-.03-.03v-.12h0Z"/>
              <path d="M16.64,8.03h-.27l-.03-.04v-.12l.08-.02v.07h.05v-.05l.07-.02v.07h.05v-.05l.07-.02v.15l-.03.03h.01ZM16.41,7.87h-.05v.12s.28.03.28.03l.02-.03v-.12h-.06v.05s-.05.02-.05.02v-.07h-.07v.05l-.05.02v-.07h-.02Z"/>
              <polygon class="st6" points="16.62 8.03 16.64 8.4 16.39 8.4 16.4 8.03 16.62 8.03"/>
              <path d="M16.65,8.42h-.26v-.39h.23l.03.39h0ZM16.61,8.03l-.21.02v.36h.22v-.38h-.01Z"/>
              <path class="st6" d="M16.66,8.06h.07v.05h.05v-.05h.07v.05h.05v-.05h.07v.12s-.01.03-.03.03h-.25s-.03-.01-.03-.03v-.11h0Z"/>
              <path d="M16.95,8.22h-.27l-.03-.05v-.11l.08-.02v.07l.05-.02v-.03l.07-.02v.07l.05-.02v-.03l.07-.02v.15l-.03.03h.01ZM16.72,8.06h-.06v.11s.28.03.28.03v-.15s-.05,0-.05,0v.05s-.05,0-.05,0v-.05h-.07l.02.05h-.06v-.05h-.01Z"/>
              <polygon class="st6" points="16.93 8.2 16.94 8.4 16.7 8.4 16.7 8.2 16.93 8.2"/>
              <path d="M16.95,8.42h-.25v-.22h.23s.02.22.02.22h0ZM16.92,8.2l-.21.02v.18h.22v-.2h-.01Z"/>
              <path class="st6" d="M16.05,8.06h.07v.05h.05v-.05h.07v.05h.06v-.05h.07v.11s-.02.03-.03.03h-.25s-.03-.02-.03-.03v-.11h0Z"/>
              <path d="M16.33,8.22h-.27l-.03-.05v-.11h.08v.05h.05v-.05s.07-.02.07-.02v.07h.06v-.04l.07-.02v.15l-.03.03h0ZM16.1,8.06h-.06v.11s.28.03.28.03v-.14s-.04,0-.04,0v.05s-.06,0-.06,0v-.05h-.07v.05s-.05,0-.05,0v-.05h-.01,0Z"/>
              <polygon class="st6" points="16.32 8.2 16.32 8.4 16.09 8.4 16.09 8.2 16.32 8.2"/>
              <path d="M16.34,8.42h-.26v-.22h.23s.03.22.03.22h0ZM16.3,8.2h-.21v.2h.21v-.2h0Z"/>
              <path class="st6" d="M16.27,8.95c0-.32.24-.4.24-.4,0,0,.25.08.25.4h-.49Z"/>
              <path class="st6" d="M16.08,8.55l-.04.37h.24c0-.3.23-.35.24-.35s.23.07.24.35h.24l-.04-.37h-.88Z"/>
              <path d="M17.01,8.94h-.26c-.02-.29-.24-.35-.24-.35,0,0-.22.04-.22.34h-.25l.02-.37h.89l.06.38h0ZM16.48,8.56h-.41l-.02.36h.22c0-.26.15-.34.21-.36h0ZM16.53,8.56c.06.02.23.11.23.36h.21l-.04-.37h-.4,0Z"/>
              <path class="st6" d="M16.02,8.92h.98s.04.02.04.05-.01.05-.04.05h-.98s-.04-.02-.04-.05.01-.05.04-.05h0Z"/>
              <path d="M17,9.03h-.98s-.05-.03-.05-.06.02-.06.05-.06h.98s.06.03.06.06-.03.06-.06.06h0ZM16.02,8.94v.06h.98s.02-.02.02-.03l-1-.03h0Z"/>
              <path class="st6" d="M16.38,8.92c0-.19.13-.25.13-.25,0,0,.14.06.14.25,0,0-.27,0-.27,0Z"/>
              <path d="M16.66,8.94h-.28c-.01-.21.12-.27.13-.27.02,0,.15.06.15.26h0ZM16.51,8.69s-.11.06-.11.23h.24c0-.18-.12-.23-.13-.23h0Z"/>
              <path class="st6" d="M16.04,8.4h.94s.04.02.04.04-.02.04-.04.04h-.94s-.04-.02-.04-.04.02-.04.04-.04h0Z"/>
              <path d="M16.98,8.5h-.94s-.05-.02-.05-.05.02-.06.05-.06h.94s.05.02.05.06-.02.05-.05.05h0ZM16.04,8.42v.05h.94s.02-.01.02-.03l-.96-.03h0Z"/>
              <path class="st6" d="M16.06,8.49h.9s.03.02.03.04-.02.04-.03.04h-.9s-.04-.02-.04-.04.02-.04.04-.04h0Z"/>
              <path d="M16.96,8.58h-.9s-.05-.03-.05-.06.02-.06.05-.06h.9s.05.02.05.06c0,.03-.02.06-.05.06h0ZM16.06,8.5v.05h.9s.02,0,.02-.02l-.92-.03h0Z"/>
              <path d="M16.48,8.14s.05-.04.05,0v.09h-.05v-.09h0Z"/>
              <path d="M16.79,8.27s.05-.04.05,0v.07h-.05v-.07h0Z"/>
              <path d="M16.18,8.27s.05-.04.05,0v.07h-.05v-.07h0Z"/>
              <path class="st6" d="M11.09,10.55h.07v.05h.05v-.05h.08v.05h.05v-.05h.07v.12s-.01.03-.04.03h-.25s-.03-.01-.03-.03v-.12h0Z"/>
              <path d="M11.38,10.71h-.27l-.03-.04v-.12h.08v.05h.05v-.05s.08,0,.08,0v.05h.05v-.05s.08,0,.08,0v.13s-.04.03-.04.03h0ZM11.15,10.55h-.06v.12s.28.03.28.03l.02-.03v-.12h-.06v.05s-.05,0-.05,0l-.02-.05h-.06v.05s-.06,0-.06,0v-.05h-.01.02Z"/>
              <polygon class="st6" points="11.35 10.71 11.38 11.08 11.12 11.08 11.14 10.71 11.36 10.71 11.35 10.71"/>
              <path d="M11.39,11.1h-.27v-.39h.23l.04.39h0ZM11.34,10.71h-.21v.38h.22l-.02-.38h.01Z"/>
              <path class="st6" d="M11.4,10.73h.06v.05h.05v-.05h.07v.05h.05v-.05h.07v.12s-.01.03-.03.03h-.25s-.03-.01-.03-.03v-.12h0Z"/>
              <path d="M11.68,10.89h-.26l-.04-.04v-.12h.08l.02.05h.04v-.05s.07,0,.07,0l.02.05h.04v-.05s.07,0,.07,0v.13s-.03.03-.03.03h-.01ZM11.45,10.73h-.05v.12s.28.03.28.03l.02-.03v-.12h-.06v.05s-.05,0-.05,0v-.05h-.07v.05s-.06,0-.06,0v-.05h-.01Z"/>
              <polygon class="st6" points="11.67 10.88 11.68 11.08 11.43 11.08 11.44 10.88 11.67 10.88"/>
              <path d="M11.69,11.1h-.25v-.22h.23s.02.22.02.22h0ZM11.65,10.88h-.21v.2h.21v-.2h0Z"/>
              <path class="st6" d="M10.79,10.74h.07v.05h.05v-.05h.07v.05h.05v-.05h.07v.12s-.01.03-.03.03h-.25s-.03-.01-.03-.03v-.12h0Z"/>
              <path d="M11.07,10.9h-.26l-.03-.04v-.12l.08-.02v.06h.05v-.05h.07s0,.05,0,.05h.05v-.05h.07s0,.13,0,.13l-.03.03h0ZM10.84,10.74h-.05v.12s.28.03.28.03l.02-.03v-.12h-.06v.05s-.06,0-.06,0v-.05h-.07v.05s-.05,0-.05,0v-.05h-.01Z"/>
              <polygon class="st6" points="11.05 10.88 11.06 11.08 10.82 11.08 10.83 10.88 11.05 10.88"/>
              <path d="M11.08,11.1h-.25v-.22h.23s.02.22.02.22h0ZM11.04,10.88h-.22v.2h.22v-.2h0Z"/>
              <path class="st6" d="M11.01,11.63c0-.32.23-.4.23-.4,0,0,.25.08.25.4h-.48Z"/>
              <path class="st6" d="M10.81,11.24l-.04.37h.24c0-.3.23-.36.24-.35,0,0,.23.06.24.35h.24l-.04-.37h-.88Z"/>
              <path d="M11.75,11.62h-.26c-.02-.29-.24-.35-.24-.35,0,0-.22.04-.22.34h-.25l.02-.37h.88l.06.38h0ZM11.22,11.24h-.41l-.03.36.22-.02c0-.25.15-.32.21-.35h0ZM11.27,11.24c.06.02.23.11.23.36h.21l-.04-.37h-.4Z"/>
              <path class="st6" d="M10.76,11.61h.98s.04.02.04.04c0,.03-.02.05-.04.05h-.98s-.04-.02-.04-.05c0-.02.01-.04.04-.04h0Z"/>
              <path d="M11.74,11.71h-.98s-.05-.03-.05-.06.02-.06.05-.06h.98s.05.03.05.06c0,.04-.02.06-.05.06h0ZM10.76,11.62v.06h.98s.02-.01.02-.03l-1-.03h0Z"/>
              <path class="st6" d="M11.12,11.6c0-.19.13-.25.13-.25,0,0,.14.06.14.25h-.27Z"/>
              <path d="M11.4,11.62h-.29c-.01-.21.12-.27.13-.27s.15.06.15.26h.01ZM11.24,11.37s-.11.06-.11.23h.24c-.01-.18-.12-.23-.13-.23h0Z"/>
              <path class="st6" d="M10.78,11.08h.94s.04.02.04.04-.01.04-.04.04h-.94s-.04-.02-.04-.04.01-.04.04-.04h0Z"/>
              <path d="M11.72,11.18h-.94s-.05-.02-.05-.06.02-.06.05-.06h.94s.05.02.05.06c0,.03-.02.06-.05.06h0ZM10.78,11.1v.05h.94s.02,0,.02-.02l-.96-.03h0Z"/>
              <path class="st6" d="M10.8,11.16h.9s.04.02.04.04-.02.04-.04.04h-.9s-.03-.02-.03-.04.01-.04.03-.04h0Z"/>
              <path d="M11.7,11.26h-.9s-.05-.02-.05-.06.02-.06.05-.06h.9s.05.03.05.06-.02.06-.05.06h0ZM10.8,11.18v.05h.9s.02-.01.02-.03l-.92-.03h0Z"/>
              <path d="M11.22,10.83s.05-.04.05,0v.09h-.05v-.09h0Z"/>
              <path d="M11.53,10.95s.05-.04.05,0v.07h-.05v-.07h0Z"/>
              <path d="M10.92,10.95s.05-.04.05,0v.07h-.05v-.07h0Z"/>
              <path class="st6" d="M16.2,13.38l.05.05-.04.04.04.03.04-.03.05.05-.04.04.04.04.04-.04.05.05-.08.08h-.04l-.18-.18s-.01-.03,0-.05l.08-.08h0Z"/>
              <path d="M16.32,13.71h-.04l-.19-.2v-.05l.09-.08.07.05-.04.05h.04l.02-.02.07.05-.04.06.04.02v-.04l.09.05-.11.11h0ZM16.19,13.39l-.06.08.2.23v-.02l.09-.08-.05-.03v.04l-.07-.04.04-.06-.05-.03-.02.04-.06-.04.04-.05-.05-.03h-.01Z"/>
              <polygon class="st6" points="16.28 13.68 16.03 13.96 15.85 13.78 16.13 13.53 16.28 13.68"/>
              <path d="M16.03,13.98l-.19-.19.28-.27.17.15-.26.31h0ZM16.12,13.54l-.26.25.17.15.24-.27-.15-.13h0Z"/>
              <path class="st6" d="M16.29,13.73l.05.05-.04.03.04.04.04-.04.05.05-.04.04.04.03.04-.03.05.05-.08.08s-.03.01-.04,0l-.18-.18s-.01-.03,0-.04l.08-.08h0Z"/>
              <path d="M16.41,14.06h-.03l-.19-.2v-.06l.09-.08.07.05-.04.06.04.02.02-.04.07.05-.04.06.04.02v-.04l.09.05-.12.12h0ZM16.28,13.74l-.06.08.19.22v-.02l.09-.08-.05-.03v.04l-.07-.04.04-.06-.05-.03-.02.04-.05-.04.04-.06-.05-.03h-.01Z"/>
              <polygon class="st6" points="16.37 14.02 16.24 14.17 16.07 14 16.22 13.87 16.37 14.02 16.37 14.02"/>
              <path d="M16.24,14.19l-.18-.18.15-.16.18.16-.15.18h0ZM16.2,13.88l-.12.14.16.14.13-.14-.16-.14h0Z"/>
              <path class="st6" d="M15.85,13.3l.05.05-.04.04.04.04.04-.04.05.05-.04.04.04.04.04-.04.05.05-.08.08s-.03.01-.04,0l-.17-.18s-.01-.03,0-.04l.08-.08h-.02Z"/>
              <path d="M15.97,13.62h-.03l-.18-.2v-.06l.08-.08.07.05-.04.06h.04v-.02s.08.05.08.05l-.04.06h.04v-.02s.08.05.08.05l-.11.12h.01ZM15.84,13.31l-.06.08.19.22v-.02l.09-.08-.05-.03v.04l-.07-.04.04-.06-.05-.03v.04l-.07-.04.04-.06-.05-.03h-.01Z"/>
              <polygon class="st6" points="15.94 13.59 15.8 13.74 15.63 13.57 15.78 13.43 15.94 13.59"/>
              <path d="M15.8,13.76l-.18-.18.15-.16.18.16-.15.18h0ZM15.77,13.44l-.13.14.16.14.12-.14-.16-.14h0Z"/>
              <path class="st6" d="M15.38,14.09c.23-.22.44-.11.44-.11,0,0,.12.23-.11.46l-.34-.34h.01Z"/>
              <path class="st6" d="M15.52,13.67l-.29.24.17.17c.22-.21.41-.09.42-.08,0,0,.12.21-.08.42l.17.17.23-.29-.62-.61h0v-.02Z"/>
              <path d="M15.91,14.6l-.18-.18c.19-.22.08-.41.08-.41h0s-.06-.04-.14-.04-.18.04-.26.12l-.19-.17.29-.26.63.61-.24.33h.01ZM15.84,14s.02.06.03.11c0,.08,0,.19-.12.31l.16.14.22-.28-.29-.27h0ZM15.51,13.68l-.27.24.17.15c.11-.14.32-.14.39-.1l-.29-.28h0Z"/>
              <path class="st6" d="M15.22,13.89l.69.69s.01.04,0,.06c-.02.02-.05.02-.06,0l-.69-.69s-.01-.04,0-.06c.02-.02.04-.02.06,0h0Z"/>
              <path d="M15.87,14.68h-.04l-.69-.71s-.01-.06,0-.08l.04-.02.73.71s.02.06,0,.08l-.04.02h0ZM15.17,13.95l.71.71.02-.02-.69-.73-.05.05h.01Z"/>
              <path class="st6" d="M15.47,14.14c.14-.13.27-.08.27-.08,0,0,.06.14-.08.27l-.19-.19h0Z"/>
              <path d="M15.66,14.35l-.2-.2c.15-.18.28-.1.28-.1.01.01.06.16-.07.29h-.01ZM15.67,14.07s-.12.01-.19.08l.18.16c.11-.12.07-.23.07-.25h-.06Z"/>
              <path class="st6" d="M15.6,13.54l.67.67s.01.04,0,.06c-.02.01-.04.01-.06,0l-.67-.67s-.01-.04,0-.05c.02-.02.04-.02.06,0h0Z"/>
              <path d="M16.24,14.29h-.04l-.66-.68s-.02-.05,0-.07h.08l.67.66s.01.06,0,.07l-.04.02h0ZM15.59,13.55l-.04.04.68.68.02-.02-.66-.7h0Z"/>
              <path class="st6" d="M15.56,13.61l.64.64s.01.04,0,.05c-.01.02-.04.02-.05,0l-.64-.64s-.01-.03,0-.05c.02-.02.04-.02.05,0h0Z"/>
              <path d="M16.16,14.33h-.04l-.64-.65s-.01-.05,0-.07h.07l.64.63s.02.05,0,.07l-.04.02h.01ZM15.55,13.62l-.04.03.65.66.02-.02-.63-.67h0Z"/>
              <path d="M16.1,13.67s.06,0,.03.04l-.06.06-.04-.04.06-.06h.01Z"/>
              <path d="M16.22,13.97s.06,0,.04.03l-.05.05-.04-.03.05-.05h0Z"/>
              <path d="M15.79,13.54s.06.01.03.04l-.05.05-.04-.04.05-.05h.01Z"/>
              <path class="st6" d="M16.35,10.55h.07v.05h.05v-.05h.08v.05h.05v-.05h.07v.12s-.01.03-.03.03h-.25s-.03-.02-.03-.03v-.12h0Z"/>
              <path d="M16.64,10.71h-.27l-.03-.04v-.12h.08v.05h.05v-.05s.08,0,.08,0v.05h.05l-.02-.05h.09v.13s-.04.03-.04.03h0ZM16.41,10.55h-.05v.12s.28.03.28.03l.02-.03v-.12h-.06v.05s-.05,0-.05,0l-.02-.05h-.06v.05s-.05,0-.05,0v-.05h-.01Z"/>
              <polygon class="st6" points="16.62 10.71 16.63 11.08 16.38 11.08 16.4 10.71 16.62 10.71"/>
              <path d="M16.65,11.1h-.26v-.39h.23l.03.39h0ZM16.6,10.71h-.2v.37h.22l-.02-.37h0Z"/>
              <path class="st6" d="M16.66,10.74h.07v.05h.05v-.05h.07v.05h.06v-.05h.07v.12s-.01.03-.03.03h-.25s-.03-.01-.03-.03v-.12h0Z"/>
              <path d="M16.94,10.9h-.27l-.03-.04v-.12l.09-.02v.06h.05v-.05h.07s.02.06.02.06h.04l-.02-.05h.08v.13s-.03.03-.03.03h0ZM16.71,10.74h-.05v.12s.28.03.28.03v-.15s-.04,0-.04,0v.05s-.06,0-.06,0v-.05h-.07v.05s-.05,0-.05,0l-.02-.05h0Z"/>
              <polygon class="st6" points="16.93 10.88 16.93 11.08 16.69 11.08 16.7 10.88 16.93 10.88"/>
              <path d="M16.95,11.1h-.25v-.22h.23s.02.22.02.22h0ZM16.91,10.88h-.21v.2h.21v-.2h0Z"/>
              <path class="st6" d="M16.04,10.74h.07v.05h.05v-.05h.07v.05h.05v-.05h.07v.12s-.01.03-.03.03h-.25s-.03-.01-.03-.03v-.12h0Z"/>
              <path d="M16.32,10.9h-.26l-.03-.04v-.12l.08-.02v.06h.05v-.05h.07s0,.06,0,.06h.05v-.05h.07s0,.14,0,.14l-.03.03h0ZM16.1,10.74h-.05v.12s.28.03.28.03l.02-.03v-.12h-.06v.05s-.06,0-.06,0v-.05h-.07v.05s-.06,0-.06,0v-.05h-.01,0Z"/>
              <polygon class="st6" points="16.31 10.88 16.32 11.08 16.08 11.08 16.09 10.88 16.31 10.88"/>
              <path d="M16.06,11.1v-.22h.25s.02.2.02.2l-.27.02h0ZM16.3,10.88h-.21v.19h.22l-.02-.19h.01Z"/>
              <path class="st6" d="M16.27,11.63c0-.32.24-.4.24-.4,0,0,.25.08.25.4h-.49Z"/>
              <path class="st6" d="M16.07,11.24l-.04.37h.24c0-.3.23-.36.24-.35,0,0,.23.07.24.35h.24l-.04-.37h-.88Z"/>
              <path d="M17,11.62h-.26c-.02-.29-.24-.35-.24-.35,0,0-.22.04-.22.34h-.25l.02-.37h.88l.06.38h.01ZM16.48,11.24h-.41l-.03.36h.22c0-.26.15-.34.21-.36h.01ZM16.53,11.24c.06.02.22.12.23.36h.21l-.04-.37h-.4,0Z"/>
              <path class="st6" d="M16.02,11.61h.98s.04.02.04.05c0,.02-.02.04-.04.04h-.98s-.04-.02-.04-.04.02-.05.04-.05h0Z"/>
              <path d="M17,11.71h-.98s-.05-.03-.05-.06c0-.04.02-.06.05-.06h.98s.05.03.05.06-.02.06-.05.06h0ZM16.02,11.62v.06h.98s.03-.01.03-.03l-1.01-.03h0Z"/>
              <path class="st6" d="M16.37,11.61c0-.19.13-.25.13-.25,0,0,.13.06.14.25,0,0-.27,0-.27,0Z"/>
              <path d="M16.66,11.62h-.28c-.01-.21.12-.27.12-.27.02,0,.16.06.16.26h0ZM16.5,11.37s-.11.05-.11.23h.24c0-.18-.12-.23-.13-.23h0Z"/>
              <path class="st6" d="M16.04,11.08h.94s.04.02.04.04-.01.04-.04.04h-.94s-.04-.02-.04-.04.02-.04.04-.04h0Z"/>
              <path d="M16.98,11.18h-.94s-.05-.03-.05-.06.03-.05.05-.05h.94s.05.02.05.05-.02.06-.05.06h0ZM16.04,11.1v.05h.94s.02,0,.02-.02l-.96-.02h0Z"/>
              <path class="st6" d="M16.06,11.16h.9s.04.02.04.04-.01.04-.04.04h-.9s-.03-.02-.03-.04.01-.04.03-.04h0Z"/>
              <path d="M16.95,11.26h-.9s-.05-.02-.05-.05.02-.06.05-.06h.9s.05.03.05.06-.02.05-.05.05h0ZM16.06,11.18v.06h.9s.02-.01.02-.03l-.92-.03h0Z"/>
              <path d="M16.48,10.83s.05-.04.05,0v.09h-.05v-.09h0Z"/>
              <path d="M16.79,10.95s.05-.04.05,0v.07h-.05v-.07h0Z"/>
              <path d="M16.18,10.95s.05-.04.05,0v.07h-.05v-.07h0Z"/>
              <path class="st6" d="M11.35,13.61l.05-.05.03.04.04-.04-.04-.04.05-.05.04.04.04-.04-.04-.04.05-.05.08.08s.01.03,0,.04l-.18.18s-.04.02-.05,0l-.08-.08h.01Z"/>
              <path d="M11.45,13.71h-.03l-.08-.09.05-.07.06.04v-.04l-.02-.02.05-.07.06.04v-.04l-.02-.02.05-.07.11.09v.06l-.23.2h0ZM11.39,13.57l-.03.05.09.08v-.02l.2-.18-.08-.1-.03.05.04.02-.04.06-.06-.04-.03.05.04.02-.04.06-.06-.03h0v-.02Z"/>
              <polygon class="st6" points="11.65 13.53 11.92 13.78 11.75 13.95 11.5 13.68 11.65 13.53"/>
              <path d="M11.75,13.98l-.27-.29.15-.17.29.25-.18.21h.01ZM11.64,13.54l-.13.15.24.24.16-.16-.28-.23h.01Z"/>
              <path class="st6" d="M11.7,13.51l.05-.05.04.04.04-.04-.04-.04.06-.05.04.04.04-.04-.04-.04.05-.05.08.08s.01.03,0,.04l-.18.18s-.03.01-.04,0l-.08-.08h-.02Z"/>
              <path d="M11.8,13.62h-.03l-.08-.1.05-.07.06.04v-.04h-.02s.05-.08.05-.08l.06.04v-.04l-.02-.02.05-.07.1.09v.06l-.21.19h-.01ZM11.73,13.48l-.03.05.09.08v-.02l.19-.18-.08-.1-.03.05.04.02-.03.06-.06-.04-.03.05h.04l-.04.07-.06-.04h0Z"/>
              <polygon class="st6" points="11.99 13.43 12.14 13.57 11.97 13.74 11.83 13.59 11.99 13.43"/>
              <path d="M11.97,13.76l-.15-.16.16-.18.17.14-.18.2h0ZM11.98,13.44l-.14.16.13.12.16-.16-.15-.12h0Z"/>
              <path class="st6" d="M11.26,13.95l.05-.05.04.03.04-.03-.04-.04.05-.05.04.04.04-.04-.04-.03.05-.05.08.08v.04l-.18.18s-.04.01-.05,0l-.08-.08h0Z"/>
              <path d="M11.37,14.05h-.03l-.08-.09.05-.07.06.04v-.04l-.02-.02.05-.07.06.04v-.04l-.02-.02.05-.07.1.09v.06l-.21.19h-.01ZM11.3,13.91l-.03.05.1.08v-.02l.19-.18-.08-.1-.03.05.04.02-.04.06-.06-.04-.03.05.03.02-.03.06-.06-.04h0Z"/>
              <polygon class="st6" points="11.56 13.86 11.7 14 11.54 14.17 11.4 14.02 11.56 13.86"/>
              <path d="M11.54,14.19l-.15-.16.16-.18.17.14-.18.2h0ZM11.55,13.87l-.14.16.13.12.16-.16-.15-.12h0Z"/>
              <path class="st6" d="M12.05,14.42c-.22-.23-.11-.45-.11-.45,0,0,.23-.12.46.11l-.34.34h-.01Z"/>
              <path class="st6" d="M11.64,14.28l.23.29.17-.17c-.21-.22-.09-.41-.08-.42,0,0,.21-.12.42.08l.17-.17-.29-.23-.61.62h-.01Z"/>
              <path d="M11.87,14.59l-.24-.3.62-.64.31.23-.17.19c-.1-.08-.18-.11-.28-.11-.08,0-.14.03-.14.03h0s-.12.19.09.39l-.18.2h-.01ZM11.93,14l-.28.29.23.26.16-.16c-.12-.1-.13-.22-.13-.3,0-.04.02-.07.03-.09h0ZM12.11,13.94c.1,0,.2.04.28.12l.15-.17-.29-.21-.27.29s.08-.03.14-.03h0Z"/>
              <path class="st6" d="M11.86,14.58l.69-.69s.04-.01.06,0c.02.02.02.04,0,.06l-.69.69s-.04.01-.06,0c-.02-.02-.02-.04,0-.06h0Z"/>
              <path d="M11.9,14.67l-.04-.02s-.03-.06,0-.08l.69-.69c.05-.01.07,0,.08,0,.02.02.02.06,0,.08l-.73.71h0ZM12.58,13.89l-.71.7v.05h.03s0-.01,0-.01l.71-.69v-.05h-.03Z"/>
              <path class="st6" d="M12.11,14.33c-.13-.14-.08-.27-.08-.27,0,0,.13-.06.27.08l-.19.19h0Z"/>
              <path d="M12.11,14.35h-.01c-.14-.15-.08-.29-.08-.29.02-.02.14-.07.29.07l-.2.22h0ZM12.04,14.08s-.04.11.08.23l.18-.18c-.13-.09-.25-.06-.25-.05h-.01Z"/>
              <path class="st6" d="M11.51,14.2l.66-.67s.04-.01.05,0c.01.02.02.04,0,.06l-.66.66s-.04.01-.05,0c-.02-.02-.02-.04,0-.05h0Z"/>
              <path d="M11.54,14.28l-.04-.03v-.07l.66-.66h.08s.02.06,0,.08l-.7.68h0ZM11.54,14.25v.02-.02l.68-.66v-.05h-.02l-.68.67v.04h.02Z"/>
              <path class="st6" d="M11.58,14.24l.63-.64s.04-.01.06,0c.02.02.02.04,0,.05l-.64.64s-.03.01-.05,0c-.01-.01-.02-.04,0-.05h0Z"/>
              <path d="M11.61,14.33l-.04-.02s-.02-.05,0-.07l.64-.64h.07s.02.06,0,.08l-.67.65h0ZM11.61,14.3h.01l.64-.64v-.04h-.03l-.65.64v.04h.03Z"/>
              <path d="M11.64,13.7s0-.06.04-.04l.06.06-.03.03-.06-.06h-.01Z"/>
              <path d="M11.95,13.57s0-.06.03-.04l.05.05-.04.03-.05-.05h.01Z"/>
              <path d="M11.51,14.01s0-.06.03-.03l.05.05-.03.03-.05-.05h0Z"/>
            </g>
          </g>
        </g>
      </g>
    </g>
  </g>
</svg>